<?xml version="1.0" encoding="utf-8"?>
<!-- Generator: Adobe Illustrator 16.0.0, SVG Export Plug-In . SVG Version: 6.00 Build 0)  -->
<!DOCTYPE svg PUBLIC "-//W3C//DTD SVG 1.1//EN" "http://www.w3.org/Graphics/SVG/1.1/DTD/svg11.dtd">
<svg version="1.1" xmlns="http://www.w3.org/2000/svg" xmlns:xlink="http://www.w3.org/1999/xlink" x="0px" y="0px"
	 width="595.28px" height="221.989px" viewBox="0 0 595.28 221.989" enable-background="new 0 0 595.28 221.989"
	 xml:space="preserve">
<g id="Layer_3" display="none">
	<polygon display="inline" fill="#EAEAEA" points="590.665,83.281 316.867,-53.619 590.665,-190.518 864.469,-53.619 	"/>
</g>
<g id="Layer_2" display="none">
	<polygon display="inline" fill="#CE3455" points="80.512,103.657 23,74.901 80.512,46.145 138.024,74.901 	"/>
	<polygon display="inline" fill="#7BCECF" points="142.179,135.99 84.667,107.234 142.179,78.478 199.691,107.234 	"/>
	<polygon display="inline" fill="#98C8EC" points="204.179,104.234 146.667,75.478 204.179,46.722 261.691,75.478 	"/>
	<polygon display="inline" fill="#9368AC" points="266.513,135.99 209.001,107.234 266.513,78.479 324.024,107.234 	"/>
	<text transform="matrix(1 0 0 1 311.4893 144.5684)" display="inline" font-family="'MyriadPro-Regular'" font-size="12">Resultado</text>
	<polygon display="inline" fill="#42B64D" points="329.869,167.746 272.357,138.99 329.869,110.234 387.381,138.99 	"/>
</g>
<g id="Layer_1" display="none">
	
		<text transform="matrix(1 0 0 1 60.333 75.478)" display="inline" fill="#FFFFFF" font-family="'MyriadPro-Regular'" font-size="10">Demanda</text>
	<text transform="matrix(1 0 0 1 116.0601 104.2339)" display="inline"><tspan x="0" y="0" font-family="'MyriadPro-Regular'" font-size="10">Proposta de </tspan><tspan x="-1.715" y="12" font-family="'MyriadPro-Regular'" font-size="10">Atendimento</tspan></text>
	<text transform="matrix(1 0 0 1 175.8408 77.9009)" display="inline" font-family="'MyriadPro-Regular'" font-size="10">Planejamento</text>
	<text transform="matrix(1 0 0 1 250.8667 102.5503)" display="inline"><tspan x="0" y="0" fill="#FFFFFF" font-family="'MyriadPro-Regular'" font-size="10">Projeto/</tspan><tspan x="-9.41" y="12" fill="#FFFFFF" font-family="'MyriadPro-Regular'" font-size="10">Manutenção</tspan></text>
	<text transform="matrix(1 0 0 1 54.063 -41.7656)" display="inline" font-family="'MyriadPro-Regular'" font-size="12">PN - Dataprev</text>
	<text transform="matrix(1 0 0 1 316.8662 -79.0996)" display="inline" font-family="'MyriadPro-Regular'" font-size="12">PD-Dataprev</text>
	<text transform="matrix(1 0 0 1 150 -117.0991)" display="inline" font-family="'MyriadPro-Regular'" font-size="12">Processo de Trabalho PN - PD - Resultado</text>
	
		<text transform="matrix(1 0 0 1 309.1289 138.9897)" display="inline" fill="#FFFFFF" font-family="'MyriadPro-Regular'" font-size="10">Resultado</text>
	<g display="inline">
		<polygon fill-rule="evenodd" clip-rule="evenodd" fill="#FFFFFF" points="43.645,38.054 41.348,43.632 49.412,77.901 
			58.082,74.825 49.059,50.194 52.176,41.171 46.28,37.398 		"/>
		<path fill-rule="evenodd" clip-rule="evenodd" d="M42.761,51.127c-4.602-4.27-5.19-8.948-1.729-12.464
			c3.165-3.216,8.096-3.077,11.231,0.315c3.247,3.514,2.584,7.983-1.992,12.048c2.087,4.804,4.215,9.702,6.345,14.601
			c0.671,1.542,1.362,3.076,2.02,4.625c1.043,2.457,0.762,4.19-1.72,5.18c-3.144,1.252-6.561,2.414-9.879,2.467
			c-3.411,0.054-6.984-0.9-10.228-2.105c-3.142-1.168-3.5-2.978-2.153-6.086C37.331,63.542,40.029,57.386,42.761,51.127z
			 M50.718,76.923c1.777-0.466,3.155-0.736,4.47-1.191c1.78-0.616,2.5-1.704,1.658-3.683c-1.185-2.784-2.091-5.688-3.24-8.489
			c-0.39-0.952-1.15-1.751-2.054-3.08c-0.927,1.309-2.133,2.229-2.089,3.083C49.69,67.902,50.242,72.223,50.718,76.923z
			 M44.426,40.213c1.454-0.117,2.908-0.234,4.738-0.381C46.897,37.632,46.102,37.646,44.426,40.213z"/>
	</g>
	<g display="inline">
		<polygon fill-rule="evenodd" clip-rule="evenodd" fill="#FFFFFF" points="364.145,102.948 361.848,108.525 369.912,142.794 
			378.582,139.719 369.559,115.088 372.676,106.064 366.779,102.292 		"/>
		<path fill-rule="evenodd" clip-rule="evenodd" fill="#257B3D" d="M363.261,116.021c-4.602-4.27-5.19-8.948-1.729-12.464
			c3.165-3.216,8.097-3.077,11.231,0.315c3.246,3.514,2.584,7.983-1.992,12.048c2.088,4.804,4.215,9.702,6.345,14.601
			c0.671,1.542,1.362,3.076,2.021,4.625c1.043,2.457,0.762,4.19-1.721,5.18c-3.143,1.252-6.561,2.414-9.879,2.467
			c-3.41,0.054-6.983-0.9-10.228-2.105c-3.142-1.168-3.501-2.978-2.153-6.086C357.831,128.435,360.529,122.28,363.261,116.021z
			 M371.218,141.817c1.777-0.466,3.155-0.736,4.47-1.191c1.781-0.616,2.5-1.704,1.658-3.683c-1.186-2.784-2.092-5.688-3.24-8.489
			c-0.389-0.952-1.149-1.751-2.053-3.08c-0.928,1.309-2.134,2.229-2.09,3.083C370.19,132.795,370.742,137.117,371.218,141.817z
			 M364.926,105.107c1.454-0.117,2.908-0.234,4.738-0.381C367.396,102.526,366.602,102.54,364.926,105.107z"/>
	</g>
	<g display="inline">
		<path d="M-119.915,51.223l7.424-7.424l1.856,1.855c1.237,1.238,1.149,2.563-0.265,3.978c-0.605,0.604-1.225,0.906-1.86,0.903
			c-0.635-0.002-1.253-0.304-1.852-0.902l-0.795-0.796l-3.447,3.446L-119.915,51.223z M-114.612,48.042l0.265,0.266
			c0.24,0.24,0.451,0.423,0.632,0.549c0.181,0.125,0.368,0.209,0.561,0.25c0.194,0.042,0.386,0.018,0.579-0.072
			c0.192-0.09,0.397-0.244,0.615-0.462c0.265-0.265,0.46-0.499,0.586-0.702c0.126-0.203,0.189-0.408,0.19-0.617
			s-0.06-0.415-0.184-0.619c-0.124-0.205-0.322-0.442-0.592-0.713l-0.265-0.266L-114.612,48.042z"/>
		<path d="M-115.602,55.537l7.424-7.425l1.645,1.645c0.776,0.777,1.165,1.482,1.167,2.12c0.001,0.636-0.387,1.345-1.166,2.123
			l-2.917,2.917c-0.815,0.814-1.579,1.254-2.291,1.317c-0.713,0.063-1.454-0.29-2.225-1.062L-115.602,55.537z M-113.746,55.801
			l0.584,0.584c0.174,0.175,0.339,0.309,0.495,0.4c0.156,0.093,0.315,0.136,0.477,0.129c0.161-0.008,0.302-0.026,0.422-0.059
			c0.12-0.031,0.27-0.118,0.447-0.261c0.178-0.142,0.321-0.265,0.427-0.364c0.106-0.102,0.268-0.261,0.486-0.479
			c0.072-0.072,0.126-0.127,0.162-0.162l2.387-2.387c0.135-0.135,0.242-0.243,0.321-0.324c0.079-0.082,0.169-0.181,0.272-0.297
			c0.102-0.115,0.178-0.213,0.228-0.29s0.102-0.168,0.155-0.271s0.084-0.196,0.091-0.278c0.007-0.08,0.008-0.172,0.002-0.275
			c-0.005-0.102-0.032-0.199-0.078-0.293c-0.047-0.095-0.11-0.195-0.189-0.305c-0.079-0.109-0.176-0.223-0.292-0.338l-0.563-0.563
			L-113.746,55.801z"/>
		<path d="M-109.582,57.844l0.795-0.795l1.591,1.591l-0.795,0.796L-109.582,57.844z"/>
		<path d="M-107.593,63.545l7.424-7.424l1.645,1.645c0.776,0.775,1.165,1.482,1.167,2.119s-0.387,1.344-1.166,2.123l-2.917,2.917
			c-0.815,0.815-1.579,1.254-2.291,1.317c-0.713,0.063-1.454-0.29-2.225-1.061L-107.593,63.545z M-105.737,63.811l0.584,0.584
			c0.174,0.174,0.339,0.307,0.495,0.4c0.156,0.092,0.315,0.135,0.477,0.127c0.162-0.006,0.302-0.025,0.422-0.058
			c0.12-0.031,0.27-0.118,0.447-0.261c0.178-0.143,0.321-0.264,0.427-0.365c0.106-0.1,0.269-0.26,0.487-0.478
			c0.072-0.071,0.126-0.126,0.162-0.161l2.387-2.387c0.135-0.136,0.242-0.244,0.32-0.326c0.079-0.082,0.169-0.18,0.272-0.296
			c0.102-0.116,0.178-0.213,0.228-0.29s0.102-0.168,0.155-0.271s0.084-0.195,0.091-0.277s0.008-0.174,0.002-0.275
			c-0.005-0.103-0.032-0.2-0.078-0.295c-0.047-0.094-0.11-0.195-0.189-0.304c-0.079-0.109-0.176-0.222-0.292-0.338l-0.563-0.563
			L-105.737,63.811z"/>
		<path d="M-103.495,67.643l9.015-5.834l1.061,1.061l-5.833,9.016l-1.061-1.061l1.458-2.254l-1.326-1.326l-2.253,1.459
			L-103.495,67.643z M-99.253,66.583l1.061,1.061l2.652-3.713L-99.253,66.583z"/>
		<path d="M-98.072,73.067l6.479-6.48l-1.326-1.325l0.945-0.944l3.712,3.711l-0.945,0.945l-1.326-1.326l-6.479,6.48L-98.072,73.067z
			"/>
		<path d="M-95.731,75.407l9.015-5.833l1.061,1.062l-5.833,9.015l-1.061-1.061l1.458-2.254l-1.326-1.325l-2.254,1.457
			L-95.731,75.407z M-91.489,74.346l1.061,1.062l2.651-3.713L-91.489,74.346z"/>
		<path d="M-90.892,80.247l7.424-7.424l1.856,1.855c1.237,1.237,1.149,2.563-0.265,3.978c-0.605,0.604-1.225,0.905-1.86,0.903
			c-0.636-0.003-1.253-0.304-1.853-0.903l-0.795-0.796l-3.447,3.447L-90.892,80.247z M-85.589,77.065l0.265,0.266
			c0.24,0.24,0.451,0.422,0.632,0.549c0.181,0.125,0.368,0.209,0.562,0.25s0.386,0.018,0.578-0.072s0.397-0.244,0.615-0.463
			c0.265-0.265,0.461-0.498,0.586-0.701s0.189-0.408,0.19-0.617c0.001-0.209-0.06-0.416-0.184-0.619
			c-0.125-0.205-0.322-0.443-0.593-0.713l-0.265-0.266L-85.589,77.065z"/>
		<path d="M-86.579,84.559l7.424-7.424l1.326,1.326c0.79,0.789,1.232,1.538,1.326,2.245c0.094,0.708-0.215,1.417-0.928,2.13
			c-0.442,0.441-0.891,0.733-1.347,0.874c-0.456,0.142-0.891,0.114-1.305-0.079l-2.519,4.906l-1.052-1.053l2.377-4.516l-0.795-0.796
			l-3.447,3.446L-86.579,84.559z M-81.276,81.377l0.265,0.266c0.442,0.441,0.867,0.68,1.274,0.715
			c0.407,0.034,0.823-0.16,1.245-0.582c0.423-0.423,0.616-0.838,0.582-1.245c-0.035-0.407-0.273-0.833-0.715-1.274l-0.265-0.266
			L-81.276,81.377z"/>
		<path d="M-81.988,89.151l7.424-7.425l2.917,2.917l-0.795,0.795l-1.856-1.855l-2.387,2.387l1.326,1.325l-0.795,0.796l-1.326-1.326
			l-2.651,2.651l1.856,1.856l-0.795,0.795L-81.988,89.151z"/>
		<path d="M-77.31,93.829l5.833-9.016l1.061,1.061l-3.194,4.76l-1.583,2.13l2.138-1.574l4.761-3.194l1.061,1.061l-9.015,5.834
			L-77.31,93.829z"/>
	</g>
	
		<text transform="matrix(0.9059 0.4777 -0.9331 0.3596 11.2344 92.124)" display="inline" fill="#969696" font-family="'Oswald-Regular'" font-size="19.1264">PN - DATAPREV</text>
	
		<text transform="matrix(0.9309 0.427 -0.9119 0.4105 226.9375 52.4663)" display="inline" fill="#B7B6B6" font-family="'Oswald-Regular'" font-size="19.2637">PD- DATAPREV</text>
</g>
<g id="Layer_4">
	<g>
		<polygon fill="#CE3455" points="116.397,117.947 35.814,77.655 116.397,37.364 196.98,77.655 		"/>
	</g>
	<g>
		<polygon fill="#7BCECF" points="202.803,163.251 122.219,122.959 202.803,82.668 283.388,122.959 		"/>
	</g>
	<g>
		<polygon fill="#98C8EC" points="289.675,118.756 209.09,78.464 289.675,38.173 370.258,78.464 		"/>
	</g>
	<g>
		<polygon fill="#9368AC" points="377.015,163.252 296.431,122.961 377.015,82.669 457.597,122.961 		"/>
	</g>
	<g>
		<path d="M441.313,164.089c0.739-0.151,1.799-0.236,2.808-0.236c1.563,0,2.573,0.286,3.279,0.926
			c0.571,0.504,0.891,1.277,0.891,2.152c0,1.496-0.941,2.488-2.135,2.893v0.051c0.874,0.303,1.396,1.109,1.664,2.287
			c0.37,1.58,0.64,2.672,0.875,3.109h-1.514c-0.185-0.318-0.438-1.295-0.757-2.707c-0.336-1.564-0.941-2.152-2.27-2.203h-1.379v4.91
			h-1.463V164.089z M442.775,169.25h1.496c1.563,0,2.556-0.857,2.556-2.152c0-1.462-1.059-2.102-2.606-2.119
			c-0.706,0-1.21,0.067-1.445,0.135V169.25z"/>
		<path d="M451.199,171.471c0.033,2,1.312,2.824,2.791,2.824c1.06,0,1.698-0.186,2.253-0.42l0.253,1.059
			c-0.521,0.236-1.413,0.504-2.708,0.504c-2.505,0-4.002-1.646-4.002-4.102s1.446-4.389,3.817-4.389
			c2.657,0,3.363,2.336,3.363,3.834c0,0.303-0.034,0.537-0.051,0.689H451.199z M455.537,170.411
			c0.017-0.941-0.387-2.404-2.052-2.404c-1.496,0-2.152,1.379-2.27,2.404H455.537z"/>
		<path d="M458.597,173.756c0.438,0.287,1.211,0.59,1.951,0.59c1.076,0,1.58-0.539,1.58-1.211c0-0.707-0.42-1.094-1.513-1.496
			c-1.463-0.521-2.152-1.33-2.152-2.305c0-1.311,1.059-2.387,2.808-2.387c0.824,0,1.547,0.234,2.001,0.504l-0.37,1.076
			c-0.319-0.201-0.907-0.471-1.664-0.471c-0.875,0-1.362,0.504-1.362,1.109c0,0.672,0.487,0.975,1.547,1.379
			c1.412,0.539,2.136,1.244,2.136,2.455c0,1.43-1.11,2.438-3.044,2.438c-0.891,0-1.715-0.219-2.286-0.555L458.597,173.756z"/>
		<path d="M472.268,173.051c0,0.84,0.017,1.58,0.066,2.219h-1.312l-0.084-1.328h-0.033c-0.387,0.656-1.244,1.514-2.69,1.514
			c-1.278,0-2.809-0.707-2.809-3.564v-4.76h1.48v4.508c0,1.547,0.471,2.588,1.815,2.588c0.992,0,1.682-0.689,1.951-1.344
			c0.084-0.219,0.134-0.488,0.134-0.758v-4.994h1.48V173.051z"/>
		<path d="M474.721,163.332h1.479v11.938h-1.479V163.332z"/>
		<path d="M480.472,164.795v2.336h2.119v1.127h-2.119v4.389c0,1.01,0.286,1.58,1.11,1.58c0.387,0,0.672-0.049,0.857-0.1l0.067,1.109
			c-0.286,0.117-0.74,0.201-1.312,0.201c-0.689,0-1.245-0.219-1.598-0.621c-0.421-0.438-0.572-1.16-0.572-2.119v-4.439h-1.261
			v-1.127h1.261v-1.95L480.472,164.795z"/>
		<path d="M488.761,175.27l-0.118-1.025h-0.051c-0.453,0.639-1.328,1.211-2.488,1.211c-1.647,0-2.488-1.16-2.488-2.338
			c0-1.967,1.748-3.043,4.893-3.025v-0.17c0-0.672-0.185-1.883-1.85-1.883c-0.757,0-1.547,0.236-2.118,0.605l-0.337-0.975
			c0.673-0.438,1.648-0.723,2.674-0.723c2.488,0,3.094,1.697,3.094,3.328v3.045c0,0.705,0.034,1.395,0.135,1.949H488.761z
			 M488.542,171.118c-1.614-0.033-3.447,0.252-3.447,1.832c0,0.959,0.639,1.412,1.396,1.412c1.06,0,1.732-0.672,1.968-1.361
			c0.05-0.152,0.084-0.32,0.084-0.471V171.118z"/>
		<path d="M499.387,163.332v9.836c0,0.723,0.018,1.547,0.067,2.102h-1.328l-0.067-1.412h-0.033
			c-0.454,0.908-1.446,1.598-2.774,1.598c-1.968,0-3.481-1.664-3.481-4.137c-0.017-2.707,1.665-4.371,3.649-4.371
			c1.244,0,2.085,0.588,2.455,1.244h0.033v-4.86H499.387z M497.907,170.444c0-0.184-0.017-0.436-0.067-0.621
			c-0.219-0.941-1.025-1.715-2.135-1.715c-1.53,0-2.438,1.344-2.438,3.145c0,1.646,0.807,3.01,2.404,3.01
			c0.992,0,1.9-0.656,2.169-1.766c0.051-0.203,0.067-0.404,0.067-0.639V170.444z"/>
		<path d="M509.207,171.133c0,3.01-2.085,4.322-4.053,4.322c-2.203,0-3.901-1.615-3.901-4.188c0-2.725,1.782-4.32,4.036-4.32
			C507.626,166.948,509.207,168.645,509.207,171.133z M502.75,171.217c0,1.783,1.025,3.129,2.472,3.129
			c1.412,0,2.472-1.328,2.472-3.162c0-1.379-0.689-3.127-2.438-3.127C503.507,168.057,502.75,169.67,502.75,171.217z"/>
	</g>
	<g>
		<polygon fill="#42B64D" points="465.788,207.747 385.204,167.454 465.788,127.163 546.371,167.454 		"/>
	</g>
	<g>
		<path fill="#FFFFFF" d="M89,78.464v-12.26h2.716c1.282,0,2.186,0.262,2.713,0.786s0.79,1.43,0.79,2.717v4.816
			c0,1.345-0.268,2.339-0.804,2.979c-0.536,0.641-1.44,0.961-2.713,0.961H89z M90.751,77.15h0.965c0.288,0,0.534-0.026,0.739-0.079
			c0.206-0.052,0.372-0.147,0.5-0.287c0.128-0.139,0.228-0.271,0.301-0.396c0.073-0.126,0.124-0.32,0.154-0.585
			s0.047-0.482,0.051-0.653s0.007-0.437,0.007-0.797c0-0.119,0-0.208,0-0.268v-3.94c0-0.224-0.001-0.401-0.003-0.534
			c-0.002-0.132-0.009-0.288-0.021-0.468c-0.011-0.181-0.028-0.323-0.051-0.428c-0.023-0.105-0.055-0.223-0.096-0.353
			s-0.092-0.231-0.154-0.305c-0.062-0.073-0.137-0.149-0.226-0.229c-0.089-0.079-0.191-0.139-0.308-0.178
			c-0.117-0.038-0.252-0.07-0.407-0.096c-0.155-0.024-0.329-0.037-0.52-0.037h-0.931V77.15z"/>
		<path fill="#FFFFFF" d="M99.153,78.587c-0.424,0-0.793-0.073-1.105-0.219c-0.313-0.146-0.561-0.336-0.746-0.571
			c-0.185-0.235-0.334-0.536-0.448-0.903c-0.114-0.367-0.193-0.734-0.236-1.102s-0.069-0.795-0.079-1.282
			c-0.014-0.384-0.014-0.767,0-1.149c0.014-0.456,0.044-0.861,0.092-1.215s0.131-0.696,0.25-1.029s0.272-0.606,0.461-0.821
			c0.189-0.214,0.438-0.387,0.746-0.517c0.308-0.13,0.667-0.195,1.078-0.195c0.374,0,0.703,0.05,0.988,0.147
			c0.285,0.099,0.522,0.246,0.711,0.444c0.189,0.199,0.347,0.419,0.472,0.661c0.125,0.241,0.22,0.534,0.284,0.879
			c0.063,0.344,0.108,0.683,0.133,1.016s0.038,0.716,0.038,1.149v0.205h-3.503v0.438c0,0.059,0,0.152,0,0.28
			c-0.009,0.169-0.01,0.343-0.003,0.523c0.007,0.18,0.015,0.356,0.024,0.53c0.009,0.173,0.034,0.339,0.075,0.496
			s0.091,0.295,0.151,0.414c0.059,0.118,0.142,0.212,0.25,0.28c0.107,0.068,0.234,0.103,0.38,0.103c0.182,0,0.333-0.035,0.451-0.106
			c0.119-0.07,0.207-0.177,0.264-0.317c0.057-0.142,0.097-0.283,0.12-0.425s0.037-0.319,0.041-0.533v-0.37h1.738v0.35
			c-0.041,0.935-0.271,1.642-0.691,2.12C100.669,78.348,100.024,78.587,99.153,78.587z M98.291,73.21h1.738v-0.527
			c-0.004-0.232-0.018-0.436-0.041-0.608c-0.023-0.174-0.063-0.347-0.12-0.521c-0.057-0.173-0.145-0.306-0.264-0.396
			c-0.119-0.092-0.265-0.137-0.438-0.137c-0.178,0-0.328,0.048-0.448,0.144c-0.121,0.096-0.21,0.233-0.267,0.414
			c-0.057,0.18-0.097,0.356-0.12,0.53c-0.023,0.173-0.037,0.381-0.041,0.622V73.21z"/>
		<path fill="#FFFFFF" d="M103.059,78.464v-8.757h1.751v0.991c0.625-0.743,1.353-1.115,2.183-1.115c0.419,0,0.728,0.093,0.924,0.277
			c0.196,0.185,0.328,0.478,0.396,0.879c0.288-0.378,0.598-0.665,0.931-0.861s0.752-0.295,1.259-0.295
			c0.146,0,0.277,0.016,0.394,0.045c0.116,0.029,0.218,0.065,0.304,0.106c0.087,0.041,0.163,0.104,0.229,0.188
			c0.066,0.085,0.121,0.162,0.164,0.232c0.043,0.071,0.08,0.173,0.109,0.305c0.03,0.133,0.051,0.242,0.065,0.328
			c0.014,0.087,0.025,0.215,0.034,0.384s0.014,0.301,0.014,0.396s0,0.239,0,0.432c0,0.041,0,0.072,0,0.096v6.369h-1.751v-6.39
			c0-0.023,0-0.06,0-0.11c0-0.15-0.002-0.267-0.007-0.349s-0.02-0.177-0.044-0.284c-0.025-0.106-0.069-0.186-0.133-0.235
			c-0.064-0.051-0.148-0.075-0.253-0.075c-0.178,0-0.356,0.035-0.534,0.105c-0.178,0.071-0.316,0.14-0.414,0.205
			c-0.098,0.066-0.22,0.159-0.366,0.277v6.855h-1.751v-6.355c0-0.027,0-0.068,0-0.124c0-0.127,0-0.223,0-0.287
			c0-0.063-0.008-0.146-0.024-0.249c-0.016-0.104-0.038-0.18-0.065-0.229c-0.027-0.051-0.071-0.096-0.13-0.137
			c-0.06-0.041-0.132-0.062-0.219-0.062c-0.429,0-0.867,0.185-1.314,0.554v6.89H103.059z"/>
		<path fill="#FFFFFF" d="M114.875,78.587c-0.488,0-0.902-0.211-1.242-0.633s-0.51-0.897-0.51-1.427c0-0.424,0.072-0.81,0.215-1.156
			c0.144-0.347,0.295-0.623,0.455-0.831c0.16-0.207,0.426-0.422,0.8-0.643c0.374-0.222,0.657-0.373,0.849-0.455
			s0.524-0.217,0.999-0.404c0.082-0.031,0.144-0.057,0.185-0.075v-0.629c0-0.442-0.062-0.786-0.185-1.03
			c-0.124-0.243-0.354-0.365-0.691-0.365c-0.301,0-0.516,0.104-0.646,0.311c-0.13,0.208-0.204,0.494-0.222,0.859
			c-0.004,0.05-0.007,0.125-0.007,0.226h-1.751c0.009-0.84,0.244-1.508,0.705-2.005c0.461-0.497,1.102-0.746,1.922-0.746
			c0.816,0,1.458,0.253,1.926,0.757c0.467,0.504,0.701,1.168,0.701,1.994v3.94c0,0.912,0.075,1.643,0.226,2.189h-1.745l-0.232-1.313
			c-0.091,0.183-0.166,0.324-0.222,0.424c-0.057,0.101-0.141,0.225-0.25,0.373s-0.219,0.263-0.328,0.342
			c-0.11,0.08-0.247,0.149-0.411,0.209S115.071,78.587,114.875,78.587z M115.75,77.15c0.124,0,0.243-0.036,0.359-0.109
			s0.204-0.144,0.264-0.212c0.059-0.068,0.132-0.16,0.219-0.274c0.014-0.022,0.025-0.038,0.034-0.048v-2.422
			c-0.073,0.051-0.194,0.128-0.363,0.232c-0.168,0.105-0.303,0.191-0.403,0.257c-0.101,0.066-0.222,0.157-0.363,0.273
			c-0.142,0.117-0.251,0.229-0.329,0.336c-0.077,0.107-0.146,0.238-0.205,0.394c-0.059,0.154-0.089,0.316-0.089,0.485
			C114.875,76.788,115.167,77.15,115.75,77.15z"/>
		<path fill="#FFFFFF" d="M119.883,78.464v-8.757h1.751v0.943c0.26-0.236,0.472-0.418,0.636-0.544
			c0.165-0.125,0.391-0.243,0.681-0.355c0.29-0.111,0.599-0.168,0.927-0.168c0.374,0,0.677,0.138,0.91,0.411
			c0.232,0.273,0.349,0.608,0.349,1.006v7.464h-1.751v-6.568c0-0.305-0.043-0.527-0.13-0.667c-0.086-0.139-0.262-0.208-0.527-0.208
			c-0.15,0-0.3,0.03-0.448,0.092c-0.148,0.062-0.259,0.119-0.332,0.171c-0.073,0.053-0.178,0.136-0.315,0.25v6.931H119.883z"/>
		<path fill="#FFFFFF" d="M128.715,78.587c-0.388,0-0.727-0.109-1.016-0.328s-0.513-0.516-0.67-0.89s-0.275-0.763-0.353-1.166
			c-0.078-0.404-0.125-0.839-0.144-1.304c-0.009-0.215-0.009-0.739,0-1.573c0.009-0.302,0.023-0.574,0.041-0.818
			c0.018-0.243,0.049-0.498,0.092-0.763s0.098-0.498,0.165-0.701c0.066-0.203,0.154-0.398,0.263-0.588s0.237-0.346,0.383-0.469
			s0.321-0.222,0.527-0.294c0.205-0.073,0.433-0.11,0.684-0.11c0.196,0,0.379,0.026,0.551,0.079
			c0.171,0.053,0.334,0.135,0.489,0.246c0.155,0.112,0.279,0.211,0.373,0.298c0.094,0.087,0.216,0.21,0.366,0.369v-4.364h1.751
			v12.253h-1.751V77.67c-0.265,0.274-0.534,0.495-0.808,0.664C129.386,78.503,129.071,78.587,128.715,78.587z M129.153,77.15
			c0.424,0,0.862-0.091,1.313-0.273v-5.508c-0.393-0.232-0.83-0.349-1.313-0.349c-0.174,0-0.319,0.042-0.438,0.126
			c-0.119,0.085-0.208,0.208-0.267,0.37c-0.059,0.161-0.103,0.328-0.13,0.499s-0.043,0.373-0.048,0.605
			c-0.018,1.021-0.018,1.831,0,2.429c0.004,0.292,0.021,0.552,0.048,0.78c0.027,0.228,0.072,0.448,0.133,0.66
			s0.152,0.375,0.271,0.489S128.984,77.15,129.153,77.15z"/>
		<path fill="#FFFFFF" d="M135.379,78.587c-0.488,0-0.902-0.211-1.242-0.633s-0.51-0.897-0.51-1.427c0-0.424,0.072-0.81,0.215-1.156
			c0.144-0.347,0.295-0.623,0.455-0.831c0.16-0.207,0.426-0.422,0.8-0.643c0.374-0.222,0.657-0.373,0.849-0.455
			s0.524-0.217,0.999-0.404c0.082-0.031,0.144-0.057,0.185-0.075v-0.629c0-0.442-0.062-0.786-0.185-1.03
			c-0.124-0.243-0.354-0.365-0.691-0.365c-0.301,0-0.516,0.104-0.646,0.311c-0.13,0.208-0.204,0.494-0.222,0.859
			c-0.004,0.05-0.007,0.125-0.007,0.226h-1.751c0.009-0.84,0.244-1.508,0.705-2.005c0.461-0.497,1.102-0.746,1.922-0.746
			c0.816,0,1.458,0.253,1.926,0.757c0.467,0.504,0.701,1.168,0.701,1.994v3.94c0,0.912,0.075,1.643,0.226,2.189h-1.745l-0.232-1.313
			c-0.091,0.183-0.166,0.324-0.222,0.424c-0.057,0.101-0.141,0.225-0.25,0.373s-0.219,0.263-0.328,0.342
			c-0.11,0.08-0.247,0.149-0.411,0.209S135.575,78.587,135.379,78.587z M136.254,77.15c0.124,0,0.243-0.036,0.359-0.109
			s0.204-0.144,0.264-0.212c0.059-0.068,0.132-0.16,0.219-0.274c0.014-0.022,0.025-0.038,0.034-0.048v-2.422
			c-0.073,0.051-0.194,0.128-0.363,0.232c-0.168,0.105-0.303,0.191-0.403,0.257c-0.101,0.066-0.222,0.157-0.363,0.273
			c-0.142,0.117-0.251,0.229-0.329,0.336c-0.077,0.107-0.146,0.238-0.205,0.394c-0.059,0.154-0.089,0.316-0.089,0.485
			C135.379,76.788,135.671,77.15,136.254,77.15z"/>
	</g>
	<g>
		<path d="M169.403,118.756v-12.26h3.065c2.043,0,3.065,1.167,3.065,3.503c0,0.998-0.264,1.759-0.79,2.281
			c-0.527,0.522-1.285,0.783-2.275,0.783h-1.313v5.692H169.403z M171.155,111.75h0.438c0.397,0,0.722-0.022,0.976-0.068
			c0.253-0.046,0.477-0.131,0.67-0.257c0.194-0.125,0.333-0.304,0.418-0.537c0.084-0.232,0.126-0.528,0.126-0.889
			c0-0.438-0.032-0.793-0.096-1.064s-0.182-0.493-0.353-0.667c-0.171-0.173-0.392-0.293-0.663-0.359
			c-0.271-0.065-0.631-0.099-1.078-0.099h-0.438V111.75z"/>
		<path d="M176.45,118.756v-8.757h1.752v1.17c0.178-0.347,0.437-0.649,0.776-0.907s0.717-0.387,1.133-0.387
			c0.014,0,0.106,0.01,0.28,0.027v1.937c-0.324-0.128-0.647-0.191-0.972-0.191c-0.365,0-0.659,0.109-0.883,0.328
			s-0.335,0.509-0.335,0.869v5.911H176.45z"/>
		<path d="M185.604,118.058c-0.406,0.548-1.078,0.821-2.018,0.821c-0.94,0-1.613-0.273-2.019-0.821
			c-0.406-0.547-0.609-1.336-0.609-2.367v-2.627c0-1.03,0.203-1.819,0.609-2.367c0.405-0.547,1.078-0.821,2.019-0.821
			c0.939,0,1.611,0.274,2.018,0.821c0.406,0.548,0.609,1.337,0.609,2.367v2.627C186.214,116.722,186.011,117.511,185.604,118.058z
			 M183.262,117.388c0.093,0.036,0.201,0.055,0.325,0.055c0.123,0,0.231-0.019,0.324-0.055c0.094-0.036,0.171-0.081,0.232-0.134
			c0.063-0.052,0.113-0.13,0.154-0.232s0.073-0.192,0.096-0.271c0.023-0.077,0.039-0.188,0.048-0.335
			c0.01-0.146,0.015-0.261,0.018-0.346c0.002-0.084,0.003-0.211,0.003-0.38v-2.627c0-0.169-0.001-0.295-0.003-0.38
			c-0.003-0.084-0.008-0.199-0.018-0.345c-0.009-0.146-0.024-0.258-0.048-0.336c-0.022-0.077-0.055-0.167-0.096-0.27
			c-0.041-0.104-0.092-0.181-0.154-0.233c-0.062-0.052-0.139-0.097-0.232-0.133c-0.093-0.037-0.201-0.055-0.324-0.055
			c-0.124,0-0.232,0.018-0.325,0.055c-0.094,0.036-0.171,0.081-0.232,0.133c-0.063,0.053-0.113,0.13-0.154,0.233
			c-0.041,0.103-0.073,0.192-0.096,0.27c-0.023,0.078-0.039,0.189-0.048,0.336c-0.01,0.146-0.015,0.261-0.018,0.345
			c-0.002,0.085-0.003,0.211-0.003,0.38v2.627c0,0.169,0.001,0.296,0.003,0.38c0.003,0.085,0.008,0.2,0.018,0.346
			c0.009,0.146,0.024,0.258,0.048,0.335c0.022,0.078,0.055,0.168,0.096,0.271s0.092,0.181,0.154,0.232
			C183.091,117.307,183.168,117.352,183.262,117.388z"/>
		<path d="M187.65,121.383v-11.384h1.751v0.875c0.142-0.15,0.24-0.253,0.295-0.308s0.149-0.139,0.283-0.253
			c0.135-0.114,0.251-0.194,0.35-0.239c0.098-0.046,0.223-0.091,0.376-0.134c0.152-0.043,0.312-0.065,0.476-0.065
			c0.296,0,0.561,0.054,0.794,0.161c0.232,0.107,0.424,0.236,0.574,0.387s0.278,0.366,0.383,0.646
			c0.105,0.28,0.184,0.535,0.236,0.763c0.053,0.229,0.093,0.536,0.12,0.924s0.043,0.701,0.048,0.94
			c0.004,0.239,0.007,0.569,0.007,0.989v0.13c0,0.383-0.02,0.752-0.059,1.108c-0.039,0.355-0.109,0.717-0.212,1.084
			s-0.232,0.686-0.39,0.954c-0.157,0.27-0.367,0.489-0.63,0.66c-0.262,0.172-0.563,0.257-0.899,0.257
			c-0.593,0-1.177-0.303-1.752-0.91v3.414H187.65z M190.716,117.442c0.187,0,0.343-0.068,0.468-0.205
			c0.126-0.137,0.217-0.332,0.274-0.585c0.057-0.254,0.096-0.504,0.116-0.753c0.021-0.248,0.03-0.539,0.03-0.872l-0.014-1.156
			c0-0.205-0.001-0.371-0.003-0.496c-0.003-0.125-0.011-0.292-0.024-0.5c-0.014-0.207-0.033-0.377-0.058-0.509
			c-0.025-0.133-0.063-0.278-0.113-0.438c-0.05-0.159-0.11-0.285-0.182-0.376c-0.07-0.092-0.161-0.169-0.273-0.232
			c-0.111-0.064-0.238-0.096-0.38-0.096c-0.068,0-0.133,0.004-0.194,0.014c-0.062,0.009-0.126,0.023-0.191,0.044
			c-0.066,0.021-0.121,0.039-0.165,0.055c-0.043,0.017-0.099,0.042-0.167,0.079c-0.068,0.036-0.118,0.063-0.147,0.078
			c-0.029,0.017-0.081,0.047-0.153,0.093c-0.073,0.046-0.119,0.073-0.138,0.082v5.419
			C189.803,117.323,190.241,117.442,190.716,117.442z"/>
		<path d="M199.261,118.058c-0.406,0.548-1.079,0.821-2.019,0.821s-1.612-0.273-2.019-0.821c-0.405-0.547-0.608-1.336-0.608-2.367
			v-2.627c0-1.03,0.203-1.819,0.608-2.367c0.406-0.547,1.079-0.821,2.019-0.821s1.612,0.274,2.019,0.821
			c0.405,0.548,0.608,1.337,0.608,2.367v2.627C199.869,116.722,199.666,117.511,199.261,118.058z M196.917,117.388
			c0.094,0.036,0.202,0.055,0.325,0.055s0.231-0.019,0.325-0.055c0.093-0.036,0.171-0.081,0.232-0.134
			c0.062-0.052,0.113-0.13,0.154-0.232s0.072-0.192,0.096-0.271c0.022-0.077,0.038-0.188,0.048-0.335
			c0.009-0.146,0.015-0.261,0.017-0.346c0.003-0.084,0.004-0.211,0.004-0.38v-2.627c0-0.169-0.001-0.295-0.004-0.38
			c-0.002-0.084-0.008-0.199-0.017-0.345c-0.01-0.146-0.025-0.258-0.048-0.336c-0.023-0.077-0.055-0.167-0.096-0.27
			c-0.041-0.104-0.093-0.181-0.154-0.233c-0.062-0.052-0.14-0.097-0.232-0.133c-0.094-0.037-0.202-0.055-0.325-0.055
			s-0.231,0.018-0.325,0.055c-0.094,0.036-0.171,0.081-0.232,0.133c-0.062,0.053-0.113,0.13-0.154,0.233
			c-0.041,0.103-0.072,0.192-0.096,0.27c-0.022,0.078-0.038,0.189-0.048,0.336c-0.009,0.146-0.015,0.261-0.017,0.345
			c-0.003,0.085-0.004,0.211-0.004,0.38v2.627c0,0.169,0.001,0.296,0.004,0.38c0.002,0.085,0.008,0.2,0.017,0.346
			c0.01,0.146,0.025,0.258,0.048,0.335c0.023,0.078,0.055,0.168,0.096,0.271s0.093,0.181,0.154,0.232
			C196.746,117.307,196.823,117.352,196.917,117.388z"/>
		<path d="M203.604,118.879c-0.721,0-1.299-0.214-1.734-0.643s-0.732-0.985-0.893-1.67l1.313-0.438
			c0.315,0.876,0.753,1.313,1.313,1.313c0.278,0,0.494-0.076,0.646-0.229c0.153-0.152,0.229-0.368,0.229-0.646
			c0-0.406-0.146-0.743-0.438-1.013l-1.752-1.313c-0.196-0.132-0.36-0.257-0.492-0.373c-0.133-0.116-0.267-0.259-0.403-0.428
			c-0.138-0.168-0.241-0.357-0.312-0.567c-0.071-0.21-0.106-0.438-0.106-0.685c0-0.748,0.238-1.32,0.715-1.717
			s1.114-0.596,1.912-0.596c0.379,0,0.721,0.061,1.026,0.182s0.563,0.291,0.77,0.51c0.208,0.219,0.379,0.462,0.514,0.729
			s0.24,0.564,0.318,0.893l-1.313,0.438c-0.064-0.174-0.128-0.323-0.192-0.448c-0.063-0.125-0.149-0.261-0.256-0.407
			c-0.107-0.146-0.234-0.259-0.38-0.339c-0.146-0.079-0.308-0.119-0.486-0.119c-0.278,0-0.493,0.076-0.646,0.229
			c-0.152,0.153-0.229,0.369-0.229,0.646c0,0.274,0.146,0.521,0.438,0.739l1.752,1.313c0.195,0.155,0.363,0.305,0.502,0.448
			c0.14,0.144,0.275,0.311,0.407,0.499c0.133,0.189,0.232,0.4,0.302,0.634c0.068,0.232,0.103,0.48,0.103,0.745
			c0,0.748-0.238,1.32-0.715,1.718C205.04,118.681,204.403,118.879,203.604,118.879z"/>
		<path d="M209.729,118.879c-0.688,0-1.189-0.176-1.502-0.526c-0.313-0.352-0.473-0.883-0.482-1.595v-5.445h-0.875v-1.313h0.875
			v-3.065h1.752v3.065h1.313v1.313h-1.313v5.11c0,0.352,0.048,0.609,0.144,0.773s0.289,0.246,0.581,0.246
			c0.128,0,0.324-0.022,0.589-0.068v1.423C210.372,118.852,210.012,118.879,209.729,118.879z"/>
		<path d="M213.614,118.879c-0.488,0-0.901-0.211-1.241-0.633s-0.51-0.897-0.51-1.427c0-0.424,0.071-0.81,0.215-1.156
			c0.145-0.347,0.296-0.623,0.455-0.831c0.16-0.207,0.427-0.422,0.801-0.643c0.374-0.222,0.657-0.373,0.849-0.455
			s0.524-0.217,0.999-0.404c0.082-0.031,0.144-0.057,0.185-0.075v-0.629c0-0.442-0.062-0.786-0.185-1.03
			c-0.124-0.243-0.354-0.365-0.691-0.365c-0.301,0-0.517,0.104-0.646,0.311c-0.13,0.208-0.204,0.494-0.223,0.859
			c-0.004,0.05-0.007,0.125-0.007,0.226h-1.751c0.009-0.84,0.244-1.508,0.704-2.005c0.461-0.497,1.102-0.746,1.923-0.746
			c0.816,0,1.458,0.253,1.926,0.757s0.701,1.168,0.701,1.994v3.94c0,0.912,0.075,1.643,0.226,2.189h-1.744l-0.232-1.313
			c-0.092,0.183-0.166,0.324-0.223,0.424c-0.057,0.101-0.141,0.225-0.25,0.373s-0.219,0.263-0.328,0.342
			c-0.109,0.08-0.246,0.149-0.41,0.209S213.811,118.879,213.614,118.879z M214.49,117.442c0.123,0,0.243-0.036,0.359-0.109
			s0.204-0.144,0.264-0.212c0.059-0.068,0.132-0.16,0.219-0.274c0.014-0.022,0.024-0.038,0.034-0.048v-2.422
			c-0.073,0.051-0.194,0.128-0.363,0.232c-0.168,0.105-0.303,0.191-0.403,0.257c-0.101,0.066-0.222,0.157-0.362,0.273
			c-0.142,0.117-0.251,0.229-0.329,0.336c-0.077,0.107-0.146,0.238-0.205,0.394c-0.059,0.154-0.089,0.316-0.089,0.485
			C213.614,117.08,213.906,117.442,214.49,117.442z"/>
		<path d="M223.515,118.879c-0.388,0-0.727-0.109-1.017-0.328c-0.289-0.219-0.513-0.516-0.67-0.89s-0.275-0.763-0.353-1.166
			c-0.078-0.404-0.126-0.839-0.144-1.304c-0.01-0.215-0.01-0.739,0-1.573c0.009-0.302,0.022-0.574,0.041-0.818
			c0.018-0.243,0.049-0.498,0.092-0.763c0.044-0.265,0.099-0.498,0.165-0.701c0.065-0.203,0.153-0.398,0.263-0.588
			s0.237-0.346,0.384-0.469c0.146-0.123,0.321-0.222,0.526-0.294c0.205-0.073,0.434-0.11,0.685-0.11
			c0.195,0,0.379,0.026,0.551,0.079c0.171,0.053,0.334,0.135,0.489,0.246c0.154,0.112,0.279,0.211,0.372,0.298
			c0.094,0.087,0.216,0.21,0.366,0.369v-4.364h1.752v12.253h-1.752v-0.794c-0.265,0.274-0.533,0.495-0.808,0.664
			C224.185,118.795,223.87,118.879,223.515,118.879z M223.952,117.442c0.424,0,0.862-0.091,1.313-0.273v-5.508
			c-0.393-0.232-0.83-0.349-1.313-0.349c-0.174,0-0.319,0.042-0.438,0.126c-0.119,0.085-0.208,0.208-0.268,0.37
			c-0.059,0.161-0.103,0.328-0.13,0.499s-0.043,0.373-0.048,0.605c-0.018,1.021-0.018,1.831,0,2.429
			c0.005,0.292,0.021,0.552,0.048,0.78c0.027,0.228,0.072,0.448,0.134,0.66s0.151,0.375,0.271,0.489
			C223.64,117.386,223.783,117.442,223.952,117.442z"/>
		<path d="M231.129,118.879c-0.424,0-0.793-0.073-1.104-0.219c-0.313-0.146-0.562-0.336-0.746-0.571s-0.334-0.536-0.448-0.903
			s-0.192-0.734-0.236-1.102c-0.043-0.367-0.069-0.795-0.078-1.282c-0.014-0.384-0.014-0.767,0-1.149
			c0.014-0.456,0.044-0.861,0.092-1.215s0.132-0.696,0.25-1.029c0.119-0.333,0.272-0.606,0.462-0.821
			c0.189-0.214,0.438-0.387,0.746-0.517c0.308-0.13,0.667-0.195,1.077-0.195c0.374,0,0.703,0.05,0.988,0.147
			c0.285,0.099,0.522,0.246,0.712,0.444c0.188,0.199,0.347,0.419,0.472,0.661c0.125,0.241,0.221,0.534,0.284,0.879
			c0.063,0.344,0.108,0.683,0.134,1.016c0.024,0.333,0.037,0.716,0.037,1.149v0.205h-3.503v0.438c0,0.059,0,0.152,0,0.28
			c-0.009,0.169-0.01,0.343-0.003,0.523c0.007,0.18,0.015,0.356,0.023,0.53c0.01,0.173,0.034,0.339,0.075,0.496
			s0.092,0.295,0.151,0.414c0.059,0.118,0.142,0.212,0.249,0.28s0.234,0.103,0.38,0.103c0.183,0,0.333-0.035,0.451-0.106
			c0.119-0.07,0.207-0.177,0.264-0.317c0.058-0.142,0.097-0.283,0.12-0.425c0.022-0.142,0.036-0.319,0.041-0.533v-0.37h1.737v0.35
			c-0.041,0.935-0.271,1.642-0.691,2.12C232.646,118.64,232,118.879,231.129,118.879z M230.267,113.502h1.738v-0.527
			c-0.005-0.232-0.019-0.436-0.041-0.608c-0.023-0.174-0.063-0.347-0.12-0.521c-0.057-0.173-0.145-0.306-0.264-0.396
			c-0.118-0.092-0.265-0.137-0.438-0.137c-0.178,0-0.327,0.048-0.448,0.144s-0.21,0.233-0.267,0.414
			c-0.058,0.18-0.097,0.356-0.12,0.53c-0.022,0.173-0.036,0.381-0.041,0.622V113.502z"/>
		<path d="M167.639,135.569l2.627-12.26h1.752l2.627,12.26h-1.752l-0.656-3.065h-2.189l-0.657,3.065H167.639z M170.266,131.19h1.752
			l-0.876-5.254L170.266,131.19z"/>
		<path d="M177.982,135.692c-0.688,0-1.188-0.176-1.501-0.526c-0.313-0.352-0.474-0.883-0.482-1.595v-5.445h-0.876v-1.313h0.876
			v-3.065h1.751v3.065h1.313v1.313h-1.313v5.11c0,0.352,0.048,0.609,0.144,0.773c0.097,0.164,0.29,0.246,0.582,0.246
			c0.128,0,0.323-0.022,0.588-0.068v1.423C178.626,135.665,178.266,135.692,177.982,135.692z"/>
		<path d="M182.772,135.692c-0.425,0-0.793-0.073-1.105-0.219c-0.313-0.146-0.561-0.336-0.746-0.571
			c-0.185-0.235-0.334-0.536-0.447-0.903c-0.114-0.367-0.193-0.734-0.236-1.102c-0.044-0.367-0.069-0.795-0.079-1.282
			c-0.014-0.384-0.014-0.767,0-1.149c0.014-0.456,0.045-0.861,0.093-1.215s0.131-0.696,0.25-1.029
			c0.118-0.333,0.272-0.606,0.461-0.821c0.189-0.214,0.438-0.387,0.746-0.517s0.667-0.195,1.078-0.195
			c0.373,0,0.703,0.05,0.988,0.147c0.285,0.099,0.522,0.246,0.711,0.444c0.189,0.199,0.347,0.419,0.473,0.661
			c0.125,0.241,0.22,0.534,0.284,0.879c0.063,0.344,0.108,0.683,0.133,1.016c0.025,0.333,0.038,0.716,0.038,1.149v0.205h-3.503
			v0.438c0,0.059,0,0.152,0,0.28c-0.01,0.169-0.011,0.343-0.004,0.523c0.007,0.18,0.015,0.356,0.024,0.53
			c0.009,0.173,0.034,0.339,0.075,0.496s0.091,0.295,0.15,0.414c0.06,0.118,0.143,0.212,0.25,0.28
			c0.106,0.068,0.233,0.103,0.38,0.103c0.182,0,0.332-0.035,0.451-0.106c0.118-0.07,0.206-0.177,0.264-0.317
			c0.057-0.142,0.097-0.283,0.119-0.425c0.023-0.142,0.037-0.319,0.041-0.533v-0.37h1.738v0.35c-0.041,0.935-0.271,1.642-0.691,2.12
			C184.288,135.453,183.644,135.692,182.772,135.692z M181.91,130.315h1.737v-0.527c-0.004-0.232-0.018-0.436-0.041-0.608
			c-0.022-0.174-0.063-0.347-0.119-0.521c-0.058-0.173-0.146-0.306-0.264-0.396c-0.119-0.092-0.265-0.137-0.438-0.137
			c-0.179,0-0.328,0.048-0.448,0.144c-0.121,0.096-0.21,0.233-0.268,0.414c-0.057,0.18-0.097,0.356-0.119,0.53
			c-0.023,0.173-0.037,0.381-0.041,0.622V130.315z"/>
		<path d="M186.679,135.569v-8.757h1.751v0.943c0.261-0.236,0.473-0.418,0.637-0.544c0.164-0.125,0.391-0.243,0.681-0.355
			c0.29-0.111,0.599-0.168,0.927-0.168c0.374,0,0.678,0.138,0.91,0.411s0.349,0.608,0.349,1.006v7.464h-1.751v-6.568
			c0-0.305-0.044-0.527-0.13-0.667c-0.087-0.139-0.263-0.208-0.527-0.208c-0.15,0-0.3,0.03-0.448,0.092
			c-0.147,0.062-0.259,0.119-0.331,0.171c-0.073,0.053-0.178,0.136-0.315,0.25v6.931H186.679z"/>
		<path d="M195.512,135.692c-0.388,0-0.727-0.109-1.017-0.328c-0.289-0.219-0.513-0.516-0.67-0.89s-0.275-0.763-0.353-1.166
			c-0.078-0.404-0.126-0.839-0.144-1.304c-0.01-0.215-0.01-0.739,0-1.573c0.009-0.302,0.022-0.574,0.041-0.818
			c0.018-0.243,0.049-0.498,0.092-0.763c0.044-0.265,0.099-0.498,0.165-0.701c0.065-0.203,0.153-0.398,0.263-0.588
			s0.237-0.346,0.384-0.469c0.146-0.123,0.321-0.222,0.526-0.294c0.205-0.073,0.434-0.11,0.685-0.11
			c0.195,0,0.379,0.026,0.551,0.079c0.171,0.053,0.334,0.135,0.489,0.246c0.154,0.112,0.279,0.211,0.372,0.298
			c0.094,0.087,0.216,0.21,0.366,0.369v-4.364h1.752v12.253h-1.752v-0.794c-0.265,0.274-0.533,0.495-0.808,0.664
			C196.182,135.608,195.867,135.692,195.512,135.692z M195.949,134.256c0.424,0,0.862-0.091,1.313-0.273v-5.508
			c-0.393-0.232-0.83-0.349-1.313-0.349c-0.174,0-0.319,0.042-0.438,0.126c-0.119,0.085-0.208,0.208-0.268,0.37
			c-0.059,0.161-0.103,0.328-0.13,0.499s-0.043,0.373-0.048,0.605c-0.018,1.021-0.018,1.831,0,2.429
			c0.005,0.292,0.021,0.552,0.048,0.78c0.027,0.228,0.072,0.448,0.134,0.66s0.151,0.375,0.271,0.489
			C195.637,134.199,195.78,134.256,195.949,134.256z"/>
		<path d="M200.725,125.498v-1.751h1.751v1.751H200.725z M200.725,135.569v-8.757h1.751v8.757H200.725z"/>
		<path d="M204.152,135.569v-8.757h1.751v0.991c0.625-0.743,1.353-1.115,2.183-1.115c0.42,0,0.728,0.093,0.924,0.277
			s0.328,0.478,0.396,0.879c0.288-0.378,0.598-0.665,0.931-0.861s0.753-0.295,1.259-0.295c0.146,0,0.277,0.016,0.394,0.045
			s0.218,0.065,0.305,0.106s0.163,0.104,0.229,0.188c0.065,0.085,0.12,0.162,0.164,0.232c0.043,0.071,0.079,0.173,0.109,0.305
			c0.029,0.133,0.051,0.242,0.064,0.328c0.014,0.087,0.025,0.215,0.034,0.384c0.01,0.169,0.014,0.301,0.014,0.396s0,0.239,0,0.432
			c0,0.041,0,0.072,0,0.096v6.369h-1.751v-6.39c0-0.023,0-0.06,0-0.11c0-0.15-0.003-0.267-0.007-0.349
			c-0.005-0.082-0.02-0.177-0.045-0.284c-0.024-0.106-0.069-0.186-0.133-0.235c-0.064-0.051-0.148-0.075-0.253-0.075
			c-0.179,0-0.356,0.035-0.534,0.105c-0.178,0.071-0.315,0.14-0.414,0.205c-0.098,0.066-0.22,0.159-0.366,0.277v6.855h-1.751v-6.355
			c0-0.027,0-0.068,0-0.124c0-0.127,0-0.223,0-0.287c0-0.063-0.008-0.146-0.024-0.249c-0.016-0.104-0.037-0.18-0.064-0.229
			c-0.027-0.051-0.071-0.096-0.13-0.137c-0.06-0.041-0.133-0.062-0.219-0.062c-0.43,0-0.867,0.185-1.314,0.554v6.89H204.152z"/>
		<path d="M216.919,135.692c-0.425,0-0.793-0.073-1.105-0.219c-0.313-0.146-0.561-0.336-0.746-0.571
			c-0.185-0.235-0.334-0.536-0.447-0.903c-0.114-0.367-0.193-0.734-0.236-1.102c-0.044-0.367-0.069-0.795-0.079-1.282
			c-0.014-0.384-0.014-0.767,0-1.149c0.014-0.456,0.045-0.861,0.093-1.215s0.131-0.696,0.25-1.029
			c0.118-0.333,0.272-0.606,0.461-0.821c0.189-0.214,0.438-0.387,0.746-0.517s0.667-0.195,1.078-0.195
			c0.373,0,0.703,0.05,0.988,0.147c0.285,0.099,0.522,0.246,0.711,0.444c0.189,0.199,0.347,0.419,0.473,0.661
			c0.125,0.241,0.22,0.534,0.284,0.879c0.063,0.344,0.108,0.683,0.133,1.016c0.025,0.333,0.038,0.716,0.038,1.149v0.205h-3.503
			v0.438c0,0.059,0,0.152,0,0.28c-0.01,0.169-0.011,0.343-0.004,0.523c0.007,0.18,0.015,0.356,0.024,0.53
			c0.009,0.173,0.034,0.339,0.075,0.496s0.091,0.295,0.15,0.414c0.06,0.118,0.143,0.212,0.25,0.28
			c0.106,0.068,0.233,0.103,0.38,0.103c0.182,0,0.332-0.035,0.451-0.106c0.118-0.07,0.206-0.177,0.264-0.317
			c0.057-0.142,0.097-0.283,0.119-0.425c0.023-0.142,0.037-0.319,0.041-0.533v-0.37h1.738v0.35c-0.041,0.935-0.271,1.642-0.691,2.12
			C218.435,135.453,217.79,135.692,216.919,135.692z M216.057,130.315h1.737v-0.527c-0.004-0.232-0.018-0.436-0.041-0.608
			c-0.022-0.174-0.063-0.347-0.119-0.521c-0.058-0.173-0.146-0.306-0.264-0.396c-0.119-0.092-0.265-0.137-0.438-0.137
			c-0.179,0-0.328,0.048-0.448,0.144c-0.121,0.096-0.21,0.233-0.268,0.414c-0.057,0.18-0.097,0.356-0.119,0.53
			c-0.023,0.173-0.037,0.381-0.041,0.622V130.315z"/>
		<path d="M220.825,135.569v-8.757h1.751v0.943c0.261-0.236,0.473-0.418,0.637-0.544c0.164-0.125,0.391-0.243,0.681-0.355
			c0.29-0.111,0.599-0.168,0.927-0.168c0.374,0,0.678,0.138,0.91,0.411s0.349,0.608,0.349,1.006v7.464h-1.751v-6.568
			c0-0.305-0.044-0.527-0.13-0.667c-0.087-0.139-0.263-0.208-0.527-0.208c-0.15,0-0.3,0.03-0.448,0.092
			c-0.147,0.062-0.259,0.119-0.331,0.171c-0.073,0.053-0.178,0.136-0.315,0.25v6.931H220.825z"/>
		<path d="M230.041,135.692c-0.688,0-1.189-0.176-1.502-0.526c-0.313-0.352-0.473-0.883-0.482-1.595v-5.445h-0.875v-1.313h0.875
			v-3.065h1.752v3.065h1.313v1.313h-1.313v5.11c0,0.352,0.048,0.609,0.144,0.773s0.289,0.246,0.581,0.246
			c0.128,0,0.324-0.022,0.589-0.068v1.423C230.685,135.665,230.324,135.692,230.041,135.692z"/>
		<path d="M236.834,134.871c-0.405,0.548-1.078,0.821-2.018,0.821s-1.613-0.273-2.019-0.821c-0.405-0.547-0.608-1.336-0.608-2.367
			v-2.627c0-1.03,0.203-1.819,0.608-2.367c0.405-0.547,1.079-0.821,2.019-0.821s1.612,0.274,2.018,0.821
			c0.406,0.548,0.609,1.337,0.609,2.367v2.627C237.443,133.535,237.24,134.324,236.834,134.871z M234.491,134.201
			c0.094,0.036,0.202,0.055,0.325,0.055s0.231-0.019,0.325-0.055c0.093-0.036,0.171-0.081,0.232-0.134
			c0.062-0.052,0.112-0.13,0.153-0.232s0.073-0.192,0.096-0.271c0.023-0.077,0.039-0.188,0.049-0.335
			c0.009-0.146,0.015-0.261,0.017-0.346c0.002-0.084,0.004-0.211,0.004-0.38v-2.627c0-0.169-0.002-0.295-0.004-0.38
			c-0.002-0.084-0.008-0.199-0.017-0.345c-0.01-0.146-0.025-0.258-0.049-0.336c-0.022-0.077-0.055-0.167-0.096-0.27
			c-0.041-0.104-0.092-0.181-0.153-0.233c-0.062-0.052-0.14-0.097-0.232-0.133c-0.094-0.037-0.202-0.055-0.325-0.055
			s-0.231,0.018-0.325,0.055c-0.094,0.036-0.171,0.081-0.232,0.133c-0.062,0.053-0.113,0.13-0.154,0.233
			c-0.041,0.103-0.073,0.192-0.096,0.27c-0.022,0.078-0.039,0.189-0.048,0.336c-0.009,0.146-0.015,0.261-0.017,0.345
			c-0.003,0.085-0.004,0.211-0.004,0.38v2.627c0,0.169,0.001,0.296,0.004,0.38c0.002,0.085,0.008,0.2,0.017,0.346
			c0.009,0.146,0.025,0.258,0.048,0.335c0.022,0.078,0.055,0.168,0.096,0.271s0.093,0.181,0.154,0.232
			C234.32,134.12,234.397,134.165,234.491,134.201z"/>
	</g>
	<g>
		<path d="M254.171,81.859v-12.26h3.064c2.044,0,3.065,1.167,3.065,3.503c0,0.998-0.264,1.759-0.79,2.281
			c-0.527,0.522-1.285,0.783-2.275,0.783h-1.313v5.692H254.171z M255.922,74.853h0.438c0.396,0,0.722-0.022,0.975-0.068
			s0.477-0.131,0.671-0.257c0.193-0.125,0.332-0.304,0.417-0.537c0.084-0.232,0.126-0.528,0.126-0.889
			c0-0.438-0.031-0.793-0.096-1.064c-0.063-0.271-0.181-0.493-0.352-0.667c-0.172-0.173-0.393-0.293-0.664-0.359
			c-0.271-0.065-0.631-0.099-1.077-0.099h-0.438V74.853z"/>
		<path d="M261.225,81.859v-12.26h1.751v12.26H261.225z"/>
		<path d="M266.062,81.982c-0.488,0-0.902-0.211-1.242-0.633s-0.51-0.897-0.51-1.427c0-0.424,0.072-0.81,0.216-1.156
			s0.296-0.623,0.455-0.831c0.159-0.207,0.427-0.422,0.801-0.643c0.374-0.222,0.656-0.373,0.848-0.455
			c0.192-0.082,0.525-0.217,0.999-0.404c0.082-0.031,0.144-0.057,0.185-0.075v-0.629c0-0.442-0.062-0.786-0.185-1.03
			c-0.123-0.243-0.354-0.365-0.69-0.365c-0.302,0-0.517,0.104-0.646,0.311c-0.13,0.208-0.204,0.494-0.223,0.859
			c-0.005,0.05-0.007,0.125-0.007,0.226h-1.752c0.01-0.84,0.244-1.508,0.705-2.005s1.102-0.746,1.923-0.746
			c0.816,0,1.458,0.253,1.926,0.757s0.701,1.168,0.701,1.994v3.94c0,0.912,0.075,1.643,0.226,2.189h-1.744l-0.233-1.313
			c-0.091,0.183-0.165,0.324-0.222,0.424c-0.058,0.101-0.141,0.225-0.25,0.373s-0.219,0.263-0.328,0.342
			c-0.109,0.08-0.246,0.149-0.411,0.209C266.438,81.953,266.258,81.982,266.062,81.982z M266.938,80.545
			c0.123,0,0.242-0.036,0.359-0.109c0.116-0.073,0.203-0.144,0.263-0.212s0.133-0.16,0.219-0.274
			c0.014-0.022,0.025-0.038,0.034-0.048V77.48c-0.072,0.051-0.193,0.128-0.362,0.232c-0.169,0.105-0.304,0.191-0.403,0.257
			c-0.101,0.066-0.222,0.157-0.362,0.273c-0.142,0.117-0.251,0.229-0.329,0.336c-0.077,0.107-0.146,0.238-0.205,0.394
			c-0.06,0.154-0.089,0.316-0.089,0.485C266.062,80.183,266.354,80.545,266.938,80.545z"/>
		<path d="M271.069,81.859v-8.757h1.751v0.943c0.26-0.236,0.473-0.418,0.637-0.544c0.164-0.125,0.391-0.243,0.681-0.355
			c0.289-0.111,0.599-0.168,0.927-0.168c0.374,0,0.678,0.138,0.91,0.411s0.349,0.608,0.349,1.006v7.464h-1.751v-6.568
			c0-0.305-0.044-0.527-0.13-0.667c-0.087-0.139-0.263-0.208-0.527-0.208c-0.15,0-0.3,0.03-0.448,0.092s-0.259,0.119-0.332,0.171
			c-0.072,0.053-0.178,0.136-0.314,0.25v6.931H271.069z"/>
		<path d="M280.333,81.982c-0.425,0-0.793-0.073-1.105-0.219c-0.313-0.146-0.561-0.336-0.745-0.571s-0.334-0.536-0.448-0.903
			s-0.193-0.734-0.236-1.102s-0.069-0.795-0.078-1.282c-0.014-0.384-0.014-0.767,0-1.149c0.014-0.456,0.044-0.861,0.092-1.215
			s0.131-0.696,0.25-1.029c0.118-0.333,0.272-0.606,0.462-0.821c0.189-0.214,0.438-0.387,0.745-0.517
			c0.309-0.13,0.667-0.195,1.078-0.195c0.374,0,0.703,0.05,0.988,0.147c0.285,0.099,0.522,0.246,0.712,0.444
			c0.188,0.199,0.347,0.419,0.472,0.661c0.126,0.241,0.22,0.534,0.284,0.879c0.063,0.344,0.108,0.683,0.134,1.016
			c0.024,0.333,0.037,0.716,0.037,1.149v0.205h-3.503v0.438c0,0.059,0,0.152,0,0.28c-0.009,0.169-0.01,0.343-0.003,0.523
			c0.007,0.18,0.015,0.356,0.023,0.53c0.009,0.173,0.034,0.339,0.075,0.496s0.092,0.295,0.15,0.414
			c0.06,0.118,0.143,0.212,0.25,0.28s0.233,0.103,0.38,0.103c0.183,0,0.333-0.035,0.451-0.106c0.119-0.07,0.206-0.177,0.264-0.317
			c0.057-0.142,0.097-0.283,0.12-0.425c0.022-0.142,0.036-0.319,0.041-0.533v-0.37h1.737v0.35c-0.041,0.935-0.271,1.642-0.691,2.12
			C281.85,81.743,281.204,81.982,280.333,81.982z M279.471,76.605h1.738v-0.527c-0.005-0.232-0.019-0.436-0.042-0.608
			c-0.022-0.174-0.063-0.347-0.119-0.521c-0.058-0.173-0.145-0.306-0.264-0.396c-0.118-0.092-0.265-0.137-0.438-0.137
			c-0.178,0-0.327,0.048-0.448,0.144s-0.21,0.233-0.267,0.414c-0.058,0.18-0.098,0.356-0.12,0.53
			c-0.022,0.173-0.036,0.381-0.041,0.622V76.605z"/>
		<path d="M283.781,84.048c-0.384,0-0.676-0.039-0.876-0.116v-1.245c0.159,0.031,0.306,0.048,0.438,0.048
			c0.584,0,0.876-0.34,0.876-1.02v-8.613h1.751v8.805c0,0.675-0.194,1.201-0.585,1.577C284.995,83.86,284.46,84.048,283.781,84.048z
			 M284.219,71.788v-1.751h1.751v1.751H284.219z"/>
		<path d="M288.987,81.982c-0.488,0-0.902-0.211-1.242-0.633s-0.51-0.897-0.51-1.427c0-0.424,0.072-0.81,0.216-1.156
			s0.296-0.623,0.455-0.831c0.159-0.207,0.427-0.422,0.801-0.643c0.374-0.222,0.656-0.373,0.848-0.455
			c0.192-0.082,0.525-0.217,0.999-0.404c0.082-0.031,0.144-0.057,0.185-0.075v-0.629c0-0.442-0.062-0.786-0.185-1.03
			c-0.123-0.243-0.354-0.365-0.69-0.365c-0.302,0-0.517,0.104-0.646,0.311c-0.13,0.208-0.204,0.494-0.223,0.859
			c-0.005,0.05-0.007,0.125-0.007,0.226h-1.752c0.01-0.84,0.244-1.508,0.705-2.005s1.102-0.746,1.923-0.746
			c0.816,0,1.458,0.253,1.926,0.757s0.701,1.168,0.701,1.994v3.94c0,0.912,0.075,1.643,0.226,2.189h-1.744l-0.233-1.313
			c-0.091,0.183-0.165,0.324-0.222,0.424c-0.058,0.101-0.141,0.225-0.25,0.373s-0.219,0.263-0.328,0.342
			c-0.109,0.08-0.246,0.149-0.411,0.209C289.363,81.953,289.184,81.982,288.987,81.982z M289.863,80.545
			c0.123,0,0.242-0.036,0.359-0.109c0.116-0.073,0.203-0.144,0.263-0.212s0.133-0.16,0.219-0.274
			c0.014-0.022,0.025-0.038,0.034-0.048V77.48c-0.072,0.051-0.193,0.128-0.362,0.232c-0.169,0.105-0.304,0.191-0.403,0.257
			c-0.101,0.066-0.222,0.157-0.362,0.273c-0.142,0.117-0.251,0.229-0.329,0.336c-0.077,0.107-0.146,0.238-0.205,0.394
			c-0.06,0.154-0.089,0.316-0.089,0.485C288.987,80.183,289.279,80.545,289.863,80.545z"/>
		<path d="M293.996,81.859v-8.757h1.751v0.991c0.625-0.743,1.353-1.115,2.183-1.115c0.42,0,0.728,0.093,0.924,0.277
			s0.328,0.478,0.396,0.879c0.287-0.378,0.598-0.665,0.931-0.861s0.753-0.295,1.259-0.295c0.146,0,0.277,0.016,0.394,0.045
			s0.218,0.065,0.305,0.106c0.086,0.041,0.163,0.104,0.229,0.188c0.066,0.085,0.121,0.162,0.164,0.232
			c0.044,0.071,0.08,0.173,0.11,0.305c0.029,0.133,0.051,0.242,0.064,0.328c0.014,0.087,0.025,0.215,0.034,0.384
			s0.014,0.301,0.014,0.396s0,0.239,0,0.432c0,0.041,0,0.072,0,0.096v6.369h-1.751v-6.39c0-0.023,0-0.06,0-0.11
			c0-0.15-0.003-0.267-0.007-0.349c-0.005-0.082-0.02-0.177-0.045-0.284c-0.025-0.106-0.069-0.186-0.134-0.235
			c-0.063-0.051-0.147-0.075-0.253-0.075c-0.178,0-0.355,0.035-0.533,0.105c-0.178,0.071-0.316,0.14-0.414,0.205
			c-0.099,0.066-0.22,0.159-0.366,0.277v6.855h-1.751v-6.355c0-0.027,0-0.068,0-0.124c0-0.127,0-0.223,0-0.287
			c0-0.063-0.009-0.146-0.024-0.249c-0.016-0.104-0.037-0.18-0.064-0.229c-0.027-0.051-0.071-0.096-0.131-0.137
			c-0.059-0.041-0.132-0.062-0.219-0.062c-0.429,0-0.866,0.185-1.313,0.554v6.89H293.996z"/>
		<path d="M306.763,81.982c-0.425,0-0.793-0.073-1.105-0.219c-0.313-0.146-0.561-0.336-0.745-0.571s-0.334-0.536-0.448-0.903
			s-0.193-0.734-0.236-1.102s-0.069-0.795-0.078-1.282c-0.014-0.384-0.014-0.767,0-1.149c0.014-0.456,0.044-0.861,0.092-1.215
			s0.131-0.696,0.25-1.029c0.118-0.333,0.272-0.606,0.462-0.821c0.189-0.214,0.438-0.387,0.745-0.517
			c0.309-0.13,0.667-0.195,1.078-0.195c0.374,0,0.703,0.05,0.988,0.147c0.285,0.099,0.522,0.246,0.712,0.444
			c0.188,0.199,0.347,0.419,0.472,0.661c0.126,0.241,0.22,0.534,0.284,0.879c0.063,0.344,0.108,0.683,0.134,1.016
			c0.024,0.333,0.037,0.716,0.037,1.149v0.205H305.9v0.438c0,0.059,0,0.152,0,0.28c-0.009,0.169-0.01,0.343-0.003,0.523
			c0.007,0.18,0.015,0.356,0.023,0.53c0.009,0.173,0.034,0.339,0.075,0.496s0.092,0.295,0.15,0.414
			c0.06,0.118,0.143,0.212,0.25,0.28s0.233,0.103,0.38,0.103c0.183,0,0.333-0.035,0.451-0.106c0.119-0.07,0.206-0.177,0.264-0.317
			c0.057-0.142,0.097-0.283,0.12-0.425c0.022-0.142,0.036-0.319,0.041-0.533v-0.37h1.737v0.35c-0.041,0.935-0.271,1.642-0.691,2.12
			C308.279,81.743,307.634,81.982,306.763,81.982z M305.9,76.605h1.738v-0.527c-0.005-0.232-0.019-0.436-0.042-0.608
			c-0.022-0.174-0.063-0.347-0.119-0.521c-0.058-0.173-0.145-0.306-0.264-0.396c-0.118-0.092-0.265-0.137-0.438-0.137
			c-0.178,0-0.327,0.048-0.448,0.144s-0.21,0.233-0.267,0.414c-0.058,0.18-0.098,0.356-0.12,0.53
			c-0.022,0.173-0.036,0.381-0.041,0.622V76.605z"/>
		<path d="M310.669,81.859v-8.757h1.751v0.943c0.26-0.236,0.473-0.418,0.637-0.544c0.164-0.125,0.391-0.243,0.681-0.355
			c0.289-0.111,0.599-0.168,0.927-0.168c0.374,0,0.678,0.138,0.91,0.411s0.349,0.608,0.349,1.006v7.464h-1.751v-6.568
			c0-0.305-0.044-0.527-0.13-0.667c-0.087-0.139-0.263-0.208-0.527-0.208c-0.15,0-0.3,0.03-0.448,0.092s-0.259,0.119-0.332,0.171
			c-0.072,0.053-0.178,0.136-0.314,0.25v6.931H310.669z"/>
		<path d="M319.885,81.982c-0.689,0-1.189-0.176-1.502-0.526c-0.313-0.352-0.474-0.883-0.482-1.595v-5.445h-0.876v-1.313h0.876
			v-3.065h1.752v3.065h1.313v1.313h-1.313v5.11c0,0.352,0.048,0.609,0.144,0.773s0.289,0.246,0.581,0.246
			c0.128,0,0.324-0.022,0.589-0.068V81.9C320.527,81.955,320.167,81.982,319.885,81.982z"/>
		<path d="M326.678,81.161c-0.405,0.548-1.078,0.821-2.018,0.821s-1.612-0.273-2.019-0.821c-0.406-0.547-0.608-1.336-0.608-2.367
			v-2.627c0-1.03,0.202-1.819,0.608-2.367c0.406-0.547,1.079-0.821,2.019-0.821s1.612,0.274,2.018,0.821
			c0.406,0.548,0.609,1.337,0.609,2.367v2.627C327.287,79.825,327.084,80.614,326.678,81.161z M324.335,80.491
			c0.094,0.036,0.202,0.055,0.325,0.055s0.231-0.019,0.325-0.055c0.093-0.036,0.171-0.081,0.232-0.134
			c0.062-0.052,0.112-0.13,0.153-0.232s0.073-0.192,0.096-0.271c0.023-0.077,0.039-0.188,0.049-0.335
			c0.009-0.146,0.015-0.261,0.017-0.346c0.002-0.084,0.004-0.211,0.004-0.38v-2.627c0-0.169-0.002-0.295-0.004-0.38
			c-0.002-0.084-0.008-0.199-0.017-0.345c-0.01-0.146-0.025-0.258-0.049-0.336c-0.022-0.077-0.055-0.167-0.096-0.27
			c-0.041-0.104-0.092-0.181-0.153-0.233c-0.062-0.052-0.14-0.097-0.232-0.133c-0.094-0.037-0.202-0.055-0.325-0.055
			s-0.231,0.018-0.325,0.055c-0.094,0.036-0.171,0.081-0.232,0.133c-0.062,0.053-0.113,0.13-0.154,0.233
			c-0.041,0.103-0.073,0.192-0.096,0.27c-0.022,0.078-0.039,0.189-0.048,0.336c-0.009,0.146-0.015,0.261-0.017,0.345
			c-0.003,0.085-0.004,0.211-0.004,0.38v2.627c0,0.169,0.001,0.296,0.004,0.38c0.002,0.085,0.008,0.2,0.017,0.346
			c0.009,0.146,0.025,0.258,0.048,0.335c0.022,0.078,0.055,0.168,0.096,0.271s0.093,0.181,0.154,0.232
			C324.164,80.41,324.241,80.455,324.335,80.491z"/>
	</g>
	<g>
		<path fill="#FFFFFF" d="M357.045,116.397v-12.26h3.064c2.044,0,3.065,1.167,3.065,3.503c0,0.998-0.264,1.759-0.79,2.281
			c-0.527,0.522-1.285,0.783-2.275,0.783h-1.313v5.692H357.045z M358.796,109.391h0.438c0.396,0,0.722-0.022,0.975-0.068
			s0.477-0.131,0.671-0.257c0.193-0.125,0.332-0.304,0.417-0.537c0.084-0.232,0.126-0.528,0.126-0.889
			c0-0.438-0.031-0.793-0.096-1.064c-0.063-0.271-0.181-0.493-0.352-0.667c-0.172-0.173-0.393-0.293-0.664-0.359
			c-0.271-0.065-0.631-0.099-1.077-0.099h-0.438V109.391z"/>
		<path fill="#FFFFFF" d="M364.092,116.397v-8.757h1.751v1.17c0.178-0.347,0.437-0.649,0.776-0.907s0.718-0.387,1.133-0.387
			c0.014,0,0.106,0.01,0.28,0.027v1.937c-0.324-0.128-0.647-0.191-0.972-0.191c-0.365,0-0.659,0.109-0.883,0.328
			c-0.223,0.219-0.335,0.509-0.335,0.869v5.911H364.092z"/>
		<path fill="#FFFFFF" d="M373.245,115.699c-0.405,0.548-1.078,0.821-2.018,0.821s-1.612-0.273-2.019-0.821
			c-0.406-0.547-0.608-1.336-0.608-2.367v-2.627c0-1.03,0.202-1.819,0.608-2.367c0.406-0.547,1.079-0.821,2.019-0.821
			s1.612,0.274,2.018,0.821c0.406,0.548,0.609,1.337,0.609,2.367v2.627C373.854,114.363,373.651,115.152,373.245,115.699z
			 M370.902,115.029c0.094,0.036,0.202,0.055,0.325,0.055s0.231-0.019,0.325-0.055c0.093-0.036,0.171-0.081,0.232-0.134
			c0.062-0.052,0.112-0.13,0.153-0.232s0.073-0.192,0.096-0.271c0.023-0.077,0.039-0.188,0.049-0.335
			c0.009-0.146,0.015-0.261,0.017-0.346c0.002-0.084,0.004-0.211,0.004-0.38v-2.627c0-0.169-0.002-0.295-0.004-0.38
			c-0.002-0.084-0.008-0.199-0.017-0.345c-0.01-0.146-0.025-0.258-0.049-0.336c-0.022-0.077-0.055-0.167-0.096-0.27
			c-0.041-0.104-0.092-0.181-0.153-0.233c-0.062-0.052-0.14-0.097-0.232-0.133c-0.094-0.037-0.202-0.055-0.325-0.055
			s-0.231,0.018-0.325,0.055c-0.094,0.036-0.171,0.081-0.232,0.133c-0.062,0.053-0.113,0.13-0.154,0.233
			c-0.041,0.103-0.073,0.192-0.096,0.27c-0.022,0.078-0.039,0.189-0.048,0.336c-0.009,0.146-0.015,0.261-0.017,0.345
			c-0.003,0.085-0.004,0.211-0.004,0.38v2.627c0,0.169,0.001,0.296,0.004,0.38c0.002,0.085,0.008,0.2,0.017,0.346
			c0.009,0.146,0.025,0.258,0.048,0.335c0.022,0.078,0.055,0.168,0.096,0.271s0.093,0.181,0.154,0.232
			C370.731,114.948,370.809,114.993,370.902,115.029z"/>
		<path fill="#FFFFFF" d="M375.08,118.586c-0.384,0-0.676-0.039-0.876-0.116v-1.245c0.159,0.031,0.306,0.048,0.438,0.048
			c0.584,0,0.876-0.34,0.876-1.02v-8.613h1.751v8.805c0,0.675-0.194,1.201-0.585,1.577
			C376.294,118.398,375.759,118.586,375.08,118.586z M375.518,106.326v-1.751h1.751v1.751H375.518z"/>
		<path fill="#FFFFFF" d="M381.237,116.52c-0.425,0-0.793-0.073-1.105-0.219c-0.313-0.146-0.561-0.336-0.745-0.571
			s-0.334-0.536-0.448-0.903s-0.193-0.734-0.236-1.102s-0.069-0.795-0.078-1.282c-0.014-0.384-0.014-0.767,0-1.149
			c0.014-0.456,0.044-0.861,0.092-1.215s0.131-0.696,0.25-1.029c0.118-0.333,0.272-0.606,0.462-0.821
			c0.189-0.214,0.438-0.387,0.745-0.517c0.309-0.13,0.667-0.195,1.078-0.195c0.374,0,0.703,0.05,0.988,0.147
			c0.285,0.099,0.522,0.246,0.712,0.444c0.188,0.199,0.347,0.419,0.472,0.661c0.126,0.241,0.22,0.534,0.284,0.879
			c0.063,0.344,0.108,0.683,0.134,1.016c0.024,0.333,0.037,0.716,0.037,1.149v0.205h-3.503v0.438c0,0.059,0,0.152,0,0.28
			c-0.009,0.169-0.01,0.343-0.003,0.523c0.007,0.18,0.015,0.356,0.023,0.53c0.009,0.173,0.034,0.339,0.075,0.496
			s0.092,0.295,0.15,0.414c0.06,0.118,0.143,0.212,0.25,0.28s0.233,0.103,0.38,0.103c0.183,0,0.333-0.035,0.451-0.106
			c0.119-0.07,0.206-0.177,0.264-0.317c0.057-0.142,0.097-0.283,0.12-0.425c0.022-0.142,0.036-0.319,0.041-0.533v-0.37h1.737v0.35
			c-0.041,0.935-0.271,1.642-0.691,2.12C382.754,116.281,382.108,116.52,381.237,116.52z M380.375,111.143h1.738v-0.527
			c-0.005-0.232-0.019-0.436-0.042-0.608c-0.022-0.174-0.063-0.347-0.119-0.521c-0.058-0.173-0.145-0.306-0.264-0.396
			c-0.118-0.092-0.265-0.137-0.438-0.137c-0.178,0-0.327,0.048-0.448,0.144s-0.21,0.233-0.267,0.414
			c-0.058,0.18-0.098,0.356-0.12,0.53c-0.022,0.173-0.036,0.381-0.041,0.622V111.143z"/>
		<path fill="#FFFFFF" d="M387.572,116.52c-0.689,0-1.189-0.176-1.502-0.526c-0.313-0.352-0.474-0.883-0.482-1.595v-5.445h-0.876
			v-1.313h0.876v-3.065h1.752v3.065h1.313v1.313h-1.313v5.11c0,0.352,0.048,0.609,0.144,0.773s0.289,0.246,0.581,0.246
			c0.128,0,0.324-0.022,0.589-0.068v1.423C388.215,116.493,387.854,116.52,387.572,116.52z"/>
		<path fill="#FFFFFF" d="M394.365,115.699c-0.405,0.548-1.078,0.821-2.018,0.821s-1.612-0.273-2.019-0.821
			c-0.406-0.547-0.608-1.336-0.608-2.367v-2.627c0-1.03,0.202-1.819,0.608-2.367c0.406-0.547,1.079-0.821,2.019-0.821
			s1.612,0.274,2.018,0.821c0.406,0.548,0.609,1.337,0.609,2.367v2.627C394.975,114.363,394.771,115.152,394.365,115.699z
			 M392.022,115.029c0.094,0.036,0.202,0.055,0.325,0.055s0.231-0.019,0.325-0.055c0.093-0.036,0.171-0.081,0.232-0.134
			c0.062-0.052,0.112-0.13,0.153-0.232s0.073-0.192,0.096-0.271c0.023-0.077,0.039-0.188,0.049-0.335
			c0.009-0.146,0.015-0.261,0.017-0.346c0.002-0.084,0.004-0.211,0.004-0.38v-2.627c0-0.169-0.002-0.295-0.004-0.38
			c-0.002-0.084-0.008-0.199-0.017-0.345c-0.01-0.146-0.025-0.258-0.049-0.336c-0.022-0.077-0.055-0.167-0.096-0.27
			c-0.041-0.104-0.092-0.181-0.153-0.233c-0.062-0.052-0.14-0.097-0.232-0.133c-0.094-0.037-0.202-0.055-0.325-0.055
			s-0.231,0.018-0.325,0.055c-0.094,0.036-0.171,0.081-0.232,0.133c-0.062,0.053-0.113,0.13-0.154,0.233
			c-0.041,0.103-0.073,0.192-0.096,0.27c-0.022,0.078-0.039,0.189-0.048,0.336c-0.009,0.146-0.015,0.261-0.017,0.345
			c-0.003,0.085-0.004,0.211-0.004,0.38v2.627c0,0.169,0.001,0.296,0.004,0.38c0.002,0.085,0.008,0.2,0.017,0.346
			c0.009,0.146,0.025,0.258,0.048,0.335c0.022,0.078,0.055,0.168,0.096,0.271s0.093,0.181,0.154,0.232
			C391.852,114.948,391.929,114.993,392.022,115.029z"/>
		<path fill="#FFFFFF" d="M395.611,116.397l3.934-12.26h1.759l-3.941,12.26H395.611z"/>
		<path fill="#FFFFFF" d="M345.972,133.21v-12.26h2.422l1.737,9.387l1.738-9.387h2.422v12.26h-1.752v-9.674l-1.751,9.674h-1.313
			l-1.752-9.674v9.674H345.972z"/>
		<path fill="#FFFFFF" d="M357.493,133.333c-0.488,0-0.902-0.211-1.242-0.633s-0.51-0.897-0.51-1.427
			c0-0.424,0.072-0.81,0.216-1.156s0.296-0.623,0.455-0.831c0.159-0.207,0.427-0.422,0.801-0.643
			c0.374-0.222,0.656-0.373,0.848-0.455c0.192-0.082,0.525-0.217,0.999-0.404c0.082-0.031,0.144-0.057,0.185-0.075v-0.629
			c0-0.442-0.062-0.786-0.185-1.03c-0.123-0.243-0.354-0.365-0.69-0.365c-0.302,0-0.517,0.104-0.646,0.311
			c-0.13,0.208-0.204,0.494-0.223,0.859c-0.005,0.05-0.007,0.125-0.007,0.226h-1.752c0.01-0.84,0.244-1.508,0.705-2.005
			s1.102-0.746,1.923-0.746c0.816,0,1.458,0.253,1.926,0.757s0.701,1.168,0.701,1.994v3.94c0,0.912,0.075,1.643,0.226,2.189h-1.744
			l-0.233-1.313c-0.091,0.183-0.165,0.324-0.222,0.424c-0.058,0.101-0.141,0.225-0.25,0.373s-0.219,0.263-0.328,0.342
			c-0.109,0.08-0.246,0.149-0.411,0.209C357.869,133.304,357.689,133.333,357.493,133.333z M358.369,131.897
			c0.123,0,0.242-0.036,0.359-0.109c0.116-0.073,0.203-0.144,0.263-0.212s0.133-0.16,0.219-0.274
			c0.014-0.022,0.025-0.038,0.034-0.048v-2.422c-0.072,0.051-0.193,0.128-0.362,0.232c-0.169,0.105-0.304,0.191-0.403,0.257
			c-0.101,0.066-0.222,0.157-0.362,0.273c-0.142,0.117-0.251,0.229-0.329,0.336c-0.077,0.107-0.146,0.238-0.205,0.394
			c-0.06,0.154-0.089,0.316-0.089,0.485C357.493,131.535,357.785,131.897,358.369,131.897z"/>
		<path fill="#FFFFFF" d="M362.501,133.21v-8.757h1.751v0.943c0.26-0.236,0.473-0.418,0.637-0.544
			c0.164-0.125,0.391-0.243,0.681-0.355c0.289-0.111,0.599-0.168,0.927-0.168c0.374,0,0.678,0.138,0.91,0.411
			s0.349,0.608,0.349,1.006v7.464h-1.751v-6.568c0-0.305-0.044-0.527-0.13-0.667c-0.087-0.139-0.263-0.208-0.527-0.208
			c-0.15,0-0.3,0.03-0.448,0.092s-0.259,0.119-0.332,0.171c-0.072,0.053-0.178,0.136-0.314,0.25v6.931H362.501z"/>
		<path fill="#FFFFFF" d="M370.54,133.333c-0.384,0-0.691-0.136-0.924-0.407s-0.349-0.607-0.349-1.009v-7.464h1.751v6.93
			c0,0.183,0.056,0.331,0.168,0.445c0.111,0.114,0.257,0.171,0.435,0.171c0.096,0,0.188-0.012,0.28-0.034
			c0.091-0.022,0.182-0.063,0.271-0.12c0.089-0.057,0.158-0.103,0.208-0.137c0.051-0.034,0.122-0.092,0.216-0.174
			s0.151-0.133,0.175-0.151v-6.93h1.751v8.757h-1.751v-0.944c-0.174,0.15-0.301,0.26-0.38,0.328
			c-0.08,0.069-0.202,0.161-0.366,0.277s-0.309,0.201-0.435,0.253c-0.125,0.053-0.281,0.101-0.469,0.145
			C370.935,133.312,370.74,133.333,370.54,133.333z"/>
		<path fill="#FFFFFF" d="M378.47,133.333c-0.689,0-1.189-0.176-1.502-0.526c-0.313-0.352-0.474-0.883-0.482-1.595v-5.445h-0.876
			v-1.313h0.876v-3.065h1.752v3.065h1.313v1.313h-1.313v5.11c0,0.352,0.048,0.609,0.144,0.773s0.289,0.246,0.581,0.246
			c0.128,0,0.324-0.022,0.589-0.068v1.423C379.112,133.306,378.752,133.333,378.47,133.333z"/>
		<path fill="#FFFFFF" d="M383.259,133.333c-0.425,0-0.793-0.073-1.105-0.219c-0.313-0.146-0.561-0.336-0.745-0.571
			s-0.334-0.536-0.448-0.903s-0.193-0.734-0.236-1.102s-0.069-0.795-0.078-1.282c-0.014-0.384-0.014-0.767,0-1.149
			c0.014-0.456,0.044-0.861,0.092-1.215s0.131-0.696,0.25-1.029c0.118-0.333,0.272-0.606,0.462-0.821
			c0.189-0.214,0.438-0.387,0.745-0.517c0.309-0.13,0.667-0.195,1.078-0.195c0.374,0,0.703,0.05,0.988,0.147
			c0.285,0.099,0.522,0.246,0.712,0.444c0.188,0.199,0.347,0.419,0.472,0.661c0.126,0.241,0.22,0.534,0.284,0.879
			c0.063,0.344,0.108,0.683,0.134,1.016c0.024,0.333,0.037,0.716,0.037,1.149v0.205h-3.503v0.438c0,0.059,0,0.152,0,0.28
			c-0.009,0.169-0.01,0.343-0.003,0.523c0.007,0.18,0.015,0.356,0.023,0.53c0.009,0.173,0.034,0.339,0.075,0.496
			s0.092,0.295,0.15,0.414c0.06,0.118,0.143,0.212,0.25,0.28s0.233,0.103,0.38,0.103c0.183,0,0.333-0.035,0.451-0.106
			c0.119-0.07,0.206-0.177,0.264-0.317c0.057-0.142,0.097-0.283,0.12-0.425c0.022-0.142,0.036-0.319,0.041-0.533v-0.37h1.737v0.35
			c-0.041,0.935-0.271,1.642-0.691,2.12C384.775,133.094,384.13,133.333,383.259,133.333z M382.396,127.957h1.738v-0.527
			c-0.005-0.232-0.019-0.436-0.042-0.608c-0.022-0.174-0.063-0.347-0.119-0.521c-0.058-0.173-0.145-0.306-0.264-0.396
			c-0.118-0.092-0.265-0.137-0.438-0.137c-0.178,0-0.327,0.048-0.448,0.144s-0.21,0.233-0.267,0.414
			c-0.058,0.18-0.098,0.356-0.12,0.53c-0.022,0.173-0.036,0.381-0.041,0.622V127.957z"/>
		<path fill="#FFFFFF" d="M387.165,133.21v-8.757h1.751v0.943c0.26-0.236,0.473-0.418,0.637-0.544
			c0.164-0.125,0.391-0.243,0.681-0.355c0.289-0.111,0.599-0.168,0.927-0.168c0.374,0,0.678,0.138,0.91,0.411
			s0.349,0.608,0.349,1.006v7.464h-1.751v-6.568c0-0.305-0.044-0.527-0.13-0.667c-0.087-0.139-0.263-0.208-0.527-0.208
			c-0.15,0-0.3,0.03-0.448,0.092s-0.259,0.119-0.332,0.171c-0.072,0.053-0.178,0.136-0.314,0.25v6.931H387.165z"/>
		<path fill="#FFFFFF" d="M396.142,133.333c-0.425,0-0.793-0.07-1.105-0.212s-0.563-0.326-0.749-0.555
			c-0.188-0.228-0.338-0.519-0.451-0.872c-0.114-0.354-0.193-0.707-0.236-1.061c-0.044-0.354-0.069-0.765-0.079-1.234
			c-0.014-0.379-0.014-0.76,0-1.143c0.01-0.466,0.035-0.876,0.079-1.231c0.043-0.356,0.123-0.711,0.239-1.064
			s0.267-0.643,0.451-0.868c0.186-0.227,0.434-0.41,0.746-0.551c0.313-0.142,0.681-0.213,1.105-0.213
			c0.921,0,1.582,0.249,1.983,0.746s0.616,1.234,0.644,2.21v0.232h-1.752v-0.246c-0.004-0.219-0.02-0.41-0.044-0.575
			c-0.025-0.164-0.066-0.328-0.123-0.492c-0.058-0.164-0.146-0.291-0.268-0.38c-0.12-0.089-0.268-0.133-0.44-0.133
			c-0.174,0-0.319,0.051-0.438,0.153c-0.118,0.103-0.209,0.25-0.271,0.441s-0.105,0.389-0.133,0.592s-0.044,0.437-0.048,0.701
			c-0.019,0.565-0.019,1.419,0,2.559c0.009,0.251,0.027,0.472,0.055,0.66c0.027,0.189,0.071,0.372,0.133,0.548
			s0.152,0.312,0.271,0.407c0.119,0.096,0.263,0.144,0.432,0.144c0.154,0,0.288-0.029,0.399-0.089
			c0.112-0.06,0.197-0.133,0.257-0.219c0.06-0.087,0.106-0.203,0.141-0.35c0.034-0.146,0.056-0.281,0.064-0.407
			c0.01-0.125,0.014-0.283,0.014-0.475v-0.213h1.752v0.227c-0.014,0.46-0.071,0.867-0.171,1.221
			c-0.101,0.354-0.252,0.663-0.455,0.927c-0.203,0.265-0.473,0.467-0.808,0.605C397,133.264,396.602,133.333,396.142,133.333z
			 M395.56,136.72v-0.876c0.068,0,0.186,0.003,0.353,0.007c0.166,0.005,0.295,0.007,0.387,0.007c0.31,0,0.556-0.03,0.738-0.092
			s0.274-0.182,0.274-0.359c0-0.064-0.018-0.126-0.052-0.185c-0.034-0.06-0.084-0.115-0.15-0.168s-0.133-0.1-0.198-0.141
			c-0.066-0.041-0.149-0.083-0.25-0.126c-0.101-0.044-0.181-0.078-0.239-0.103c-0.06-0.025-0.14-0.055-0.239-0.089
			c-0.101-0.034-0.162-0.057-0.186-0.065v-1.313h0.876v0.876c0.215,0.059,0.4,0.118,0.558,0.178s0.339,0.142,0.544,0.246
			s0.365,0.232,0.479,0.383c0.113,0.151,0.171,0.319,0.171,0.507c0,0.173-0.025,0.327-0.075,0.462
			c-0.051,0.134-0.115,0.247-0.195,0.339c-0.08,0.091-0.185,0.168-0.314,0.232c-0.13,0.063-0.259,0.113-0.387,0.15
			c-0.128,0.036-0.285,0.064-0.473,0.085c-0.187,0.021-0.354,0.033-0.503,0.038c-0.147,0.005-0.327,0.007-0.536,0.007H395.56z"/>
		<path fill="#FFFFFF" d="M401.642,133.333c-0.488,0-0.902-0.211-1.242-0.633s-0.51-0.897-0.51-1.427
			c0-0.424,0.072-0.81,0.216-1.156s0.296-0.623,0.455-0.831c0.159-0.207,0.427-0.422,0.801-0.643
			c0.374-0.222,0.656-0.373,0.848-0.455c0.192-0.082,0.525-0.217,0.999-0.404c0.082-0.031,0.144-0.057,0.185-0.075v-0.629
			c0-0.442-0.062-0.786-0.185-1.03c-0.123-0.243-0.354-0.365-0.69-0.365c-0.302,0-0.517,0.104-0.646,0.311
			c-0.13,0.208-0.204,0.494-0.223,0.859c-0.005,0.05-0.007,0.125-0.007,0.226h-1.752c0.01-0.84,0.244-1.508,0.705-2.005
			s1.102-0.746,1.923-0.746c0.816,0,1.458,0.253,1.926,0.757s0.701,1.168,0.701,1.994v3.94c0,0.912,0.075,1.643,0.226,2.189h-1.744
			l-0.233-1.313c-0.091,0.183-0.165,0.324-0.222,0.424c-0.058,0.101-0.141,0.225-0.25,0.373s-0.219,0.263-0.328,0.342
			c-0.109,0.08-0.246,0.149-0.411,0.209C402.018,133.304,401.838,133.333,401.642,133.333z M403.345,123.632
			c-0.219,0-0.443-0.05-0.674-0.15s-0.452-0.2-0.667-0.298c-0.214-0.098-0.415-0.147-0.602-0.147c-0.219,0-0.329,0.153-0.329,0.459
			h-1.053c0-0.529,0.131-0.973,0.393-1.331c0.263-0.357,0.633-0.537,1.112-0.537c0.265,0,0.595,0.099,0.992,0.294
			c0.396,0.196,0.707,0.295,0.931,0.295c0.232,0,0.349-0.157,0.349-0.473h1.054c0,0.534-0.132,0.982-0.394,1.345
			C404.194,123.451,403.824,123.632,403.345,123.632z M402.518,131.897c0.123,0,0.242-0.036,0.359-0.109
			c0.116-0.073,0.203-0.144,0.263-0.212s0.133-0.16,0.219-0.274c0.014-0.022,0.025-0.038,0.034-0.048v-2.422
			c-0.072,0.051-0.193,0.128-0.362,0.232c-0.169,0.105-0.304,0.191-0.403,0.257c-0.101,0.066-0.222,0.157-0.362,0.273
			c-0.142,0.117-0.251,0.229-0.329,0.336c-0.077,0.107-0.146,0.238-0.205,0.394c-0.06,0.154-0.089,0.316-0.089,0.485
			C401.642,131.535,401.934,131.897,402.518,131.897z"/>
		<path fill="#FFFFFF" d="M411.131,132.512c-0.405,0.548-1.078,0.821-2.018,0.821s-1.612-0.273-2.019-0.821
			c-0.406-0.547-0.608-1.336-0.608-2.367v-2.627c0-1.03,0.202-1.819,0.608-2.367c0.406-0.547,1.079-0.821,2.019-0.821
			s1.612,0.274,2.018,0.821c0.406,0.548,0.609,1.337,0.609,2.367v2.627C411.74,131.176,411.537,131.965,411.131,132.512z
			 M408.788,131.842c0.094,0.036,0.202,0.055,0.325,0.055s0.231-0.019,0.325-0.055c0.093-0.036,0.171-0.081,0.232-0.134
			c0.062-0.052,0.112-0.13,0.153-0.232s0.073-0.192,0.096-0.271c0.023-0.077,0.039-0.188,0.049-0.335
			c0.009-0.146,0.015-0.261,0.017-0.346c0.002-0.084,0.004-0.211,0.004-0.38v-2.627c0-0.169-0.002-0.295-0.004-0.38
			c-0.002-0.084-0.008-0.199-0.017-0.345c-0.01-0.146-0.025-0.258-0.049-0.336c-0.022-0.077-0.055-0.167-0.096-0.27
			c-0.041-0.104-0.092-0.181-0.153-0.233c-0.062-0.052-0.14-0.097-0.232-0.133c-0.094-0.037-0.202-0.055-0.325-0.055
			s-0.231,0.018-0.325,0.055c-0.094,0.036-0.171,0.081-0.232,0.133c-0.062,0.053-0.113,0.13-0.154,0.233
			c-0.041,0.103-0.073,0.192-0.096,0.27c-0.022,0.078-0.039,0.189-0.048,0.336c-0.009,0.146-0.015,0.261-0.017,0.345
			c-0.003,0.085-0.004,0.211-0.004,0.38v2.627c0,0.169,0.001,0.296,0.004,0.38c0.002,0.085,0.008,0.2,0.017,0.346
			c0.009,0.146,0.025,0.258,0.048,0.335c0.022,0.078,0.055,0.168,0.096,0.271s0.093,0.181,0.154,0.232
			C408.617,131.761,408.694,131.806,408.788,131.842z"/>
	</g>
	<g>
		<path fill="#FFFFFF" d="M439.133,167.454v-12.259h2.189c1.304,0,2.287,0.253,2.948,0.759c0.661,0.507,0.992,1.348,0.992,2.524
			c0,0.73-0.13,1.342-0.39,1.834c-0.261,0.492-0.642,0.83-1.143,1.013l1.97,6.129h-1.737l-1.766-5.692h-1.313v5.692H439.133z
			 M440.884,160.448h0.438c0.729,0,1.276-0.154,1.642-0.462s0.547-0.811,0.547-1.509c0-0.697-0.182-1.2-0.547-1.508
			c-0.365-0.309-0.912-0.462-1.642-0.462h-0.438V160.448z"/>
		<path fill="#FFFFFF" d="M449.114,167.577c-0.425,0-0.793-0.072-1.105-0.219s-0.561-0.336-0.745-0.57
			c-0.185-0.236-0.334-0.537-0.448-0.904c-0.114-0.367-0.193-0.734-0.236-1.102s-0.069-0.795-0.078-1.282
			c-0.014-0.384-0.014-0.767,0-1.149c0.014-0.456,0.044-0.861,0.092-1.215s0.131-0.696,0.25-1.029
			c0.118-0.333,0.272-0.606,0.462-0.821c0.189-0.214,0.438-0.387,0.745-0.517c0.309-0.13,0.667-0.195,1.078-0.195
			c0.374,0,0.703,0.05,0.988,0.147c0.285,0.099,0.522,0.246,0.712,0.444c0.188,0.199,0.347,0.419,0.472,0.661
			c0.126,0.241,0.22,0.534,0.284,0.879c0.063,0.344,0.108,0.683,0.134,1.016c0.024,0.333,0.037,0.716,0.037,1.149v0.205h-3.503
			v0.438c0,0.059,0,0.152,0,0.28c-0.009,0.169-0.01,0.343-0.003,0.523c0.007,0.18,0.015,0.356,0.023,0.53
			c0.009,0.173,0.034,0.339,0.075,0.496s0.092,0.295,0.15,0.414c0.06,0.118,0.143,0.211,0.25,0.28s0.233,0.104,0.38,0.104
			c0.183,0,0.333-0.035,0.451-0.107c0.119-0.07,0.206-0.176,0.264-0.317c0.057-0.142,0.097-0.283,0.12-0.425
			c0.022-0.142,0.036-0.319,0.041-0.533v-0.37h1.737v0.35c-0.041,0.935-0.271,1.641-0.691,2.12
			C450.631,167.338,449.985,167.577,449.114,167.577z M448.252,162.2h1.738v-0.527c-0.005-0.232-0.019-0.436-0.042-0.608
			c-0.022-0.174-0.063-0.347-0.119-0.521c-0.058-0.173-0.145-0.306-0.264-0.396c-0.118-0.092-0.265-0.137-0.438-0.137
			c-0.178,0-0.327,0.048-0.448,0.144s-0.21,0.233-0.267,0.414c-0.058,0.18-0.098,0.356-0.12,0.53
			c-0.022,0.173-0.036,0.381-0.041,0.622V162.2z"/>
		<path fill="#FFFFFF" d="M455.32,167.577c-0.721,0-1.299-0.213-1.734-0.643c-0.436-0.428-0.733-0.984-0.894-1.669l1.314-0.438
			c0.314,0.876,0.752,1.314,1.313,1.314c0.277,0,0.493-0.076,0.646-0.23c0.152-0.152,0.229-0.368,0.229-0.646
			c0-0.406-0.146-0.743-0.438-1.013l-1.751-1.313c-0.196-0.132-0.36-0.257-0.493-0.373c-0.132-0.116-0.267-0.259-0.403-0.428
			c-0.137-0.168-0.241-0.357-0.312-0.567s-0.106-0.438-0.106-0.685c0-0.748,0.238-1.32,0.716-1.717
			c0.477-0.396,1.113-0.596,1.912-0.596c0.378,0,0.721,0.061,1.026,0.182c0.305,0.121,0.562,0.291,0.77,0.51
			c0.207,0.219,0.378,0.462,0.513,0.729s0.24,0.564,0.318,0.893l-1.313,0.438c-0.064-0.174-0.128-0.323-0.191-0.448
			c-0.064-0.125-0.149-0.261-0.257-0.407c-0.107-0.146-0.234-0.259-0.38-0.339c-0.146-0.079-0.308-0.119-0.485-0.119
			c-0.278,0-0.494,0.076-0.646,0.229c-0.153,0.153-0.229,0.369-0.229,0.646c0,0.274,0.146,0.521,0.438,0.739l1.752,1.313
			c0.196,0.155,0.363,0.305,0.503,0.448c0.139,0.144,0.274,0.311,0.407,0.499c0.132,0.189,0.232,0.4,0.301,0.634
			c0.068,0.232,0.103,0.48,0.103,0.745c0,0.748-0.238,1.32-0.715,1.718C456.756,167.379,456.118,167.577,455.32,167.577z"/>
		<path fill="#FFFFFF" d="M460.267,167.577c-0.384,0-0.691-0.135-0.924-0.406s-0.349-0.607-0.349-1.01v-7.463h1.751v6.93
			c0,0.183,0.056,0.331,0.168,0.446c0.111,0.113,0.257,0.17,0.435,0.17c0.096,0,0.188-0.012,0.28-0.033
			c0.091-0.023,0.182-0.063,0.271-0.121c0.089-0.057,0.158-0.102,0.208-0.137c0.051-0.033,0.122-0.091,0.216-0.173
			s0.151-0.133,0.175-0.151v-6.93h1.751v8.756h-1.751v-0.943c-0.174,0.15-0.301,0.26-0.38,0.328c-0.08,0.068-0.202,0.16-0.366,0.277
			c-0.164,0.115-0.309,0.201-0.435,0.252c-0.125,0.053-0.281,0.102-0.469,0.145C460.661,167.555,460.467,167.577,460.267,167.577z"
			/>
		<path fill="#FFFFFF" d="M465.774,167.454v-12.259h1.751v12.259H465.774z"/>
		<path fill="#FFFFFF" d="M471.515,167.577c-0.689,0-1.189-0.176-1.502-0.525c-0.313-0.352-0.474-0.883-0.482-1.595v-5.445h-0.876
			v-1.313h0.876v-3.065h1.752v3.065h1.313v1.313h-1.313v5.11c0,0.352,0.048,0.609,0.144,0.773c0.096,0.165,0.289,0.247,0.581,0.247
			c0.128,0,0.324-0.023,0.589-0.068v1.422C472.157,167.549,471.797,167.577,471.515,167.577z"/>
		<path fill="#FFFFFF" d="M475.4,167.577c-0.488,0-0.902-0.211-1.242-0.633s-0.51-0.896-0.51-1.426c0-0.424,0.072-0.81,0.216-1.156
			s0.296-0.623,0.455-0.831c0.159-0.207,0.427-0.422,0.801-0.643c0.374-0.222,0.656-0.373,0.848-0.455
			c0.192-0.082,0.525-0.217,0.999-0.404c0.082-0.031,0.144-0.057,0.185-0.075v-0.629c0-0.442-0.062-0.786-0.185-1.03
			c-0.123-0.243-0.354-0.365-0.69-0.365c-0.302,0-0.517,0.104-0.646,0.311c-0.13,0.208-0.204,0.494-0.223,0.859
			c-0.005,0.05-0.007,0.125-0.007,0.226h-1.752c0.01-0.84,0.244-1.508,0.705-2.005s1.102-0.746,1.923-0.746
			c0.816,0,1.458,0.253,1.926,0.757s0.701,1.168,0.701,1.994v3.94c0,0.912,0.075,1.642,0.226,2.189h-1.744l-0.233-1.313
			c-0.091,0.182-0.165,0.324-0.222,0.424c-0.058,0.1-0.141,0.225-0.25,0.373s-0.219,0.262-0.328,0.342s-0.246,0.148-0.411,0.209
			C475.776,167.547,475.597,167.577,475.4,167.577z M476.276,166.141c0.123,0,0.242-0.037,0.359-0.109
			c0.116-0.074,0.203-0.144,0.263-0.212s0.133-0.16,0.219-0.274c0.014-0.022,0.025-0.038,0.034-0.048v-2.422
			c-0.072,0.051-0.193,0.128-0.362,0.232c-0.169,0.105-0.304,0.191-0.403,0.257c-0.101,0.066-0.222,0.157-0.362,0.273
			c-0.142,0.117-0.251,0.229-0.329,0.336c-0.077,0.107-0.146,0.238-0.205,0.394c-0.06,0.154-0.089,0.316-0.089,0.485
			C475.4,165.778,475.692,166.141,476.276,166.141z"/>
		<path fill="#FFFFFF" d="M482.453,167.577c-0.388,0-0.726-0.109-1.016-0.328s-0.513-0.516-0.671-0.889
			c-0.157-0.375-0.274-0.763-0.352-1.167c-0.078-0.404-0.126-0.839-0.144-1.304c-0.01-0.215-0.01-0.739,0-1.573
			c0.009-0.302,0.022-0.574,0.041-0.818c0.018-0.243,0.049-0.498,0.092-0.763c0.044-0.265,0.099-0.498,0.164-0.701
			c0.066-0.203,0.154-0.398,0.264-0.588s0.237-0.346,0.383-0.469c0.146-0.123,0.322-0.222,0.527-0.294
			c0.205-0.073,0.433-0.11,0.684-0.11c0.196,0,0.38,0.026,0.551,0.079c0.172,0.053,0.334,0.135,0.489,0.246
			c0.155,0.112,0.279,0.211,0.373,0.298s0.216,0.21,0.366,0.369v-4.364h1.751v12.252h-1.751v-0.793
			c-0.265,0.273-0.534,0.494-0.808,0.664C483.124,167.493,482.81,167.577,482.453,167.577z M482.892,166.141
			c0.424,0,0.862-0.092,1.313-0.274v-5.508c-0.393-0.232-0.83-0.349-1.313-0.349c-0.174,0-0.319,0.042-0.438,0.126
			c-0.118,0.085-0.207,0.208-0.267,0.37c-0.06,0.161-0.103,0.328-0.13,0.499s-0.043,0.373-0.048,0.605
			c-0.019,1.021-0.019,1.831,0,2.429c0.005,0.292,0.021,0.552,0.048,0.78c0.027,0.228,0.072,0.448,0.134,0.66
			s0.151,0.375,0.27,0.489C482.579,166.084,482.723,166.141,482.892,166.141z"/>
		<path fill="#FFFFFF" d="M492.072,166.756c-0.405,0.547-1.078,0.82-2.018,0.82s-1.612-0.273-2.019-0.82s-0.608-1.336-0.608-2.368
			v-2.627c0-1.03,0.202-1.819,0.608-2.367c0.406-0.547,1.079-0.821,2.019-0.821s1.612,0.274,2.018,0.821
			c0.406,0.548,0.609,1.337,0.609,2.367v2.627C492.682,165.42,492.479,166.209,492.072,166.756z M489.729,166.086
			c0.094,0.035,0.202,0.055,0.325,0.055s0.231-0.02,0.325-0.055c0.093-0.037,0.171-0.082,0.232-0.135
			c0.062-0.051,0.112-0.129,0.153-0.232s0.073-0.192,0.096-0.271c0.023-0.077,0.039-0.188,0.049-0.335
			c0.009-0.146,0.015-0.261,0.017-0.346c0.002-0.084,0.004-0.211,0.004-0.38v-2.627c0-0.169-0.002-0.295-0.004-0.38
			c-0.002-0.084-0.008-0.199-0.017-0.345c-0.01-0.146-0.025-0.258-0.049-0.336c-0.022-0.077-0.055-0.167-0.096-0.27
			c-0.041-0.104-0.092-0.181-0.153-0.233c-0.062-0.052-0.14-0.097-0.232-0.133c-0.094-0.037-0.202-0.055-0.325-0.055
			s-0.231,0.018-0.325,0.055c-0.094,0.036-0.171,0.081-0.232,0.133c-0.062,0.053-0.113,0.13-0.154,0.233
			c-0.041,0.103-0.073,0.192-0.096,0.27c-0.022,0.078-0.039,0.189-0.048,0.336c-0.009,0.146-0.015,0.261-0.017,0.345
			c-0.003,0.085-0.004,0.211-0.004,0.38v2.627c0,0.169,0.001,0.296,0.004,0.38c0.002,0.085,0.008,0.2,0.017,0.346
			c0.009,0.146,0.025,0.258,0.048,0.335c0.022,0.078,0.055,0.168,0.096,0.271s0.093,0.181,0.154,0.232
			C489.559,166.004,489.636,166.049,489.729,166.086z"/>
	</g>
	<g>
		<g>
			<polygon fill-rule="evenodd" clip-rule="evenodd" fill="#FFFFFF" points="64.74,26.027 61.522,33.842 72.821,81.859 
				84.968,77.549 72.326,43.037 76.693,30.394 68.432,25.107 			"/>
		</g>
		<g>
			<path fill-rule="evenodd" clip-rule="evenodd" d="M63.501,44.345c-6.448-5.982-7.272-12.538-2.422-17.464
				c4.434-4.506,11.344-4.312,15.737,0.442c4.549,4.923,3.621,11.186-2.791,16.881c2.925,6.73,5.906,13.594,8.89,20.458
				c0.94,2.16,1.909,4.31,2.831,6.48c1.461,3.442,1.067,5.871-2.41,7.257c-4.405,1.755-9.193,3.383-13.842,3.457
				c-4.779,0.075-9.786-1.262-14.331-2.95c-4.402-1.637-4.905-4.172-3.017-8.527C55.894,61.739,59.674,53.114,63.501,44.345z
				 M74.65,80.489c2.49-0.652,4.421-1.031,6.264-1.669c2.494-0.864,3.502-2.388,2.322-5.16c-1.66-3.901-2.93-7.97-4.539-11.896
				c-0.546-1.334-1.611-2.453-2.878-4.315c-1.298,1.834-2.989,3.123-2.927,4.32C73.211,67.849,73.984,73.903,74.65,80.489z
				 M65.834,29.053c2.038-0.164,4.075-0.328,6.639-0.534C69.297,25.437,68.183,25.455,65.834,29.053z"/>
		</g>
	</g>
	<g>
		<g>
			<polygon fill-rule="evenodd" clip-rule="evenodd" fill="#FFFFFF" points="513.813,116.954 510.595,124.77 521.895,172.786 
				534.043,168.477 521.399,133.965 525.767,121.321 517.505,116.034 			"/>
		</g>
		<g>
			<path fill-rule="evenodd" clip-rule="evenodd" fill="#257B3D" d="M512.573,135.271c-6.447-5.982-7.271-12.538-2.422-17.464
				c4.437-4.506,11.347-4.312,15.738,0.441c4.549,4.924,3.621,11.187-2.791,16.882c2.926,6.73,5.905,13.594,8.889,20.458
				c0.941,2.16,1.91,4.31,2.832,6.479c1.462,3.443,1.067,5.872-2.411,7.258c-4.402,1.754-9.191,3.383-13.842,3.455
				c-4.777,0.076-9.786-1.26-14.331-2.949c-4.401-1.637-4.904-4.172-3.017-8.527C504.966,152.665,508.748,144.041,512.573,135.271z
				 M523.723,171.417c2.49-0.654,4.422-1.033,6.264-1.67c2.496-0.863,3.503-2.389,2.324-5.16c-1.661-3.901-2.932-7.97-4.54-11.896
				c-0.545-1.334-1.612-2.453-2.877-4.315c-1.3,1.834-2.991,3.122-2.928,4.319C522.283,158.775,523.058,164.83,523.723,171.417z
				 M514.908,119.979c2.036-0.165,4.074-0.329,6.639-0.534C518.37,116.362,517.256,116.382,514.908,119.979z"/>
		</g>
	</g>
	<g>
		<path fill="#969696" d="M21.487,102.926l21.881-8.432l5.312,2.801c3.54,1.867,3.227,3.604-0.94,5.209
			c-1.783,0.688-3.597,0.97-5.441,0.848c-1.846-0.123-3.626-0.636-5.34-1.54l-2.276-1.2l-10.159,3.915L21.487,102.926z
			 M37.026,99.708l0.758,0.4c0.688,0.362,1.292,0.644,1.813,0.844c0.52,0.199,1.06,0.345,1.619,0.436
			c0.56,0.092,1.12,0.096,1.682,0.013c0.561-0.083,1.163-0.248,1.807-0.496c0.781-0.302,1.359-0.574,1.733-0.819
			c0.372-0.245,0.566-0.506,0.579-0.781c0.014-0.275-0.156-0.56-0.509-0.853c-0.353-0.294-0.915-0.646-1.69-1.054l-0.758-0.399
			L37.026,99.708z"/>
		<path fill="#969696" d="M33.828,109.433l21.881-8.432l2.276,1.201l-8.218,8.014l13.528-5.213l3.035,1.6l-21.881,8.432
			l-2.158-1.138l9.127-8.472l-14.556,5.609L33.828,109.433z"/>
		<path fill="#969696" d="M56.37,116.327l2.345-0.903l4.552,2.4l-2.345,0.903L56.37,116.327z"/>
		<path fill="#969696" d="M61.9,124.236l21.881-8.432l4.706,2.481c2.222,1.172,3.32,2.178,3.296,3.02
			c-0.022,0.842-1.183,1.706-3.478,2.59l-8.597,3.313c-2.401,0.926-4.638,1.364-6.71,1.315c-2.072-0.05-4.211-0.655-6.415-1.817
			L61.9,124.236z M67.28,124.933l1.671,0.882c0.498,0.263,0.972,0.47,1.421,0.621c0.45,0.151,0.909,0.238,1.379,0.259
			c0.469,0.021,0.879,0.021,1.229,0.002c0.35-0.02,0.787-0.107,1.311-0.262s0.942-0.289,1.255-0.402
			c0.313-0.113,0.791-0.295,1.435-0.542c0.212-0.082,0.37-0.143,0.477-0.184l7.033-2.71c0.398-0.154,0.714-0.276,0.946-0.37
			c0.231-0.093,0.499-0.207,0.8-0.341c0.303-0.135,0.527-0.248,0.675-0.341c0.148-0.094,0.302-0.203,0.463-0.33
			s0.254-0.243,0.276-0.351c0.023-0.105,0.03-0.227,0.018-0.363c-0.011-0.136-0.083-0.271-0.215-0.403
			c-0.132-0.133-0.312-0.279-0.535-0.438c-0.224-0.158-0.501-0.326-0.834-0.501l-1.611-0.851L67.28,124.933z"/>
		<path fill="#969696" d="M73.625,130.419l26.433-6.031l3.035,1.6L85.765,136.82l-3.035-1.601l4.333-2.708l-3.794-2.001
			l-6.608,1.508L73.625,130.419z M85.992,129.808l3.035,1.601l7.859-4.414L85.992,129.808z"/>
		<path fill="#969696" d="M89.144,138.602l19.098-7.358l-3.794-2.001l2.783-1.073l10.622,5.602l-2.783,1.072l-3.794-2l-19.098,7.359
			L89.144,138.602z"/>
		<path fill="#969696" d="M95.841,142.134l26.433-6.031l3.035,1.6l-17.328,10.832l-3.035-1.6l4.333-2.708l-3.794-2.001l-6.608,1.508
			L95.841,142.134z M108.208,141.522l3.035,1.601l7.859-4.414L108.208,141.522z"/>
		<path fill="#969696" d="M109.688,149.435l21.881-8.432l5.311,2.801c3.541,1.867,3.227,3.604-0.94,5.209
			c-1.783,0.688-3.597,0.97-5.441,0.848c-1.846-0.122-3.625-0.636-5.34-1.54l-2.276-1.2l-10.159,3.915L109.688,149.435z
			 M125.226,146.217l0.759,0.4c0.688,0.362,1.292,0.644,1.812,0.844c0.521,0.2,1.061,0.345,1.62,0.437
			c0.56,0.09,1.12,0.094,1.681,0.012c0.562-0.083,1.164-0.248,1.808-0.496c0.781-0.301,1.358-0.574,1.732-0.819
			c0.373-0.245,0.566-0.505,0.58-0.78c0.013-0.276-0.156-0.561-0.51-0.854c-0.353-0.294-0.915-0.645-1.689-1.053l-0.759-0.4
			L125.226,146.217z"/>
		<path fill="#969696" d="M122.029,155.942l21.881-8.432l3.793,2c2.26,1.192,3.512,2.265,3.755,3.217
			c0.242,0.953-0.688,1.834-2.787,2.643c-1.303,0.502-2.619,0.804-3.948,0.905c-1.329,0.101-2.593-0.015-3.787-0.348l-7.526,6.016
			l-3.011-1.587l7.101-5.528l-2.276-1.2l-10.159,3.915L122.029,155.942z M137.567,152.725l0.759,0.4
			c1.265,0.667,2.487,1.062,3.669,1.183c1.182,0.122,2.396-0.058,3.642-0.537c1.245-0.48,1.826-0.992,1.743-1.538
			c-0.082-0.545-0.756-1.151-2.021-1.817l-0.759-0.4L137.567,152.725z"/>
		<path fill="#969696" d="M135.164,162.869l21.881-8.432l8.346,4.4l-2.344,0.903l-5.312-2.801l-7.033,2.711l3.794,2l-2.345,0.903
			l-3.794-2l-7.814,3.011l5.312,2.8l-2.345,0.904L135.164,162.869z"/>
		<path fill="#969696" d="M148.548,169.926l17.329-10.832l3.034,1.6l-9.48,5.699l-4.688,2.521l6.275-1.684l13.963-3.335l3.034,1.6
			l-26.433,6.031L148.548,169.926z"/>
	</g>
	<g>
		<path fill="#B7B6B6" d="M323.797,47.245l21.536-9.695l5.497,2.521c3.665,1.681,3.445,3.444-0.656,5.291
			c-1.754,0.79-3.563,1.175-5.426,1.154c-1.861-0.021-3.681-0.438-5.455-1.252l-2.355-1.08l-9.999,4.501L323.797,47.245z
			 M339.244,43.146l0.785,0.36c0.713,0.326,1.336,0.576,1.869,0.748c0.534,0.172,1.086,0.288,1.653,0.349s1.132,0.033,1.692-0.081
			c0.56-0.115,1.155-0.315,1.788-0.601c0.77-0.346,1.336-0.652,1.696-0.919c0.363-0.267,0.544-0.54,0.541-0.817
			c-0.002-0.277-0.188-0.555-0.56-0.83c-0.37-0.275-0.957-0.598-1.758-0.965l-0.785-0.359L339.244,43.146z"/>
		<path fill="#B7B6B6" d="M336.569,53.103l21.536-9.694l4.871,2.235c2.299,1.054,3.459,2.005,3.482,2.853
			c0.022,0.849-1.094,1.781-3.354,2.798l-8.461,3.81c-2.363,1.063-4.59,1.628-6.675,1.694c-2.087,0.066-4.271-0.425-6.554-1.472
			L336.569,53.103z M342.019,53.506l1.729,0.794c0.516,0.235,1.003,0.418,1.463,0.545c0.461,0.127,0.927,0.188,1.4,0.184
			c0.473-0.006,0.887-0.027,1.237-0.066c0.352-0.039,0.786-0.151,1.304-0.336c0.517-0.185,0.931-0.343,1.238-0.475
			c0.31-0.131,0.78-0.34,1.414-0.625c0.207-0.094,0.363-0.164,0.469-0.211l6.922-3.115c0.393-0.177,0.703-0.318,0.932-0.426
			c0.227-0.105,0.49-0.234,0.787-0.387c0.295-0.152,0.515-0.278,0.658-0.381c0.143-0.102,0.293-0.22,0.447-0.357
			c0.154-0.136,0.24-0.259,0.259-0.367c0.017-0.107,0.017-0.23-0.003-0.367c-0.019-0.136-0.1-0.268-0.24-0.394
			c-0.14-0.126-0.326-0.263-0.561-0.41s-0.523-0.3-0.866-0.458l-1.669-0.765L342.019,53.506z"/>
		<path fill="#B7B6B6" d="M354.283,56.336l2.309-1.039l4.711,2.161l-2.307,1.039L354.283,56.336z"/>
		<path fill="#B7B6B6" d="M360.285,63.981l21.536-9.694l4.871,2.234c2.299,1.055,3.46,2.006,3.482,2.854
			c0.022,0.849-1.094,1.78-3.354,2.798l-8.46,3.809c-2.363,1.064-4.59,1.629-6.676,1.695c-2.088,0.065-4.271-0.425-6.554-1.472
			L360.285,63.981z M365.734,64.384l1.729,0.794c0.515,0.236,1.003,0.418,1.462,0.545c0.461,0.128,0.928,0.189,1.401,0.185
			c0.474-0.006,0.886-0.027,1.237-0.066s0.785-0.151,1.305-0.336c0.516-0.186,0.93-0.344,1.238-0.475
			c0.309-0.132,0.779-0.34,1.412-0.625c0.209-0.094,0.365-0.164,0.469-0.211l6.923-3.116c0.392-0.177,0.702-0.317,0.931-0.425
			c0.229-0.106,0.49-0.234,0.787-0.387s0.516-0.279,0.658-0.381c0.145-0.102,0.293-0.221,0.449-0.357
			c0.154-0.136,0.24-0.259,0.258-0.367s0.016-0.23-0.004-0.367c-0.018-0.136-0.098-0.268-0.238-0.394s-0.328-0.264-0.563-0.411
			c-0.234-0.146-0.522-0.299-0.865-0.457l-1.669-0.766L365.734,64.384z"/>
		<path fill="#B7B6B6" d="M372.419,69.548l26.248-7.533l3.141,1.44l-16.825,11.856l-3.141-1.441l4.207-2.964l-3.926-1.801
			l-6.563,1.884L372.419,69.548z M384.822,68.247l3.141,1.439l7.66-4.875L384.822,68.247z"/>
		<path fill="#B7B6B6" d="M388.479,76.915l18.796-8.461l-3.926-1.801l2.74-1.233l10.993,5.042l-2.739,1.233l-3.926-1.801
			l-18.797,8.462L388.479,76.915z"/>
		<path fill="#B7B6B6" d="M395.411,80.095l26.248-7.533l3.141,1.44l-16.825,11.855l-3.14-1.44l4.206-2.964l-3.926-1.801
			l-6.563,1.884L395.411,80.095z M407.814,78.794l3.141,1.439l7.66-4.875L407.814,78.794z"/>
		<path fill="#B7B6B6" d="M409.741,86.668l21.536-9.694l5.497,2.521c3.664,1.681,3.444,3.444-0.657,5.291
			c-1.754,0.789-3.563,1.175-5.425,1.154c-1.862-0.021-3.681-0.438-5.455-1.252l-2.355-1.08l-9.999,4.5L409.741,86.668z
			 M425.189,82.569l0.783,0.359c0.713,0.327,1.336,0.576,1.87,0.748s1.085,0.289,1.653,0.35c0.567,0.06,1.131,0.032,1.691-0.082
			c0.56-0.115,1.156-0.314,1.789-0.6c0.77-0.346,1.336-0.652,1.697-0.92c0.362-0.267,0.543-0.539,0.539-0.816
			c0-0.278-0.188-0.556-0.559-0.831s-0.957-0.597-1.759-0.964l-0.784-0.36L425.189,82.569z"/>
		<path fill="#B7B6B6" d="M422.514,92.526l21.536-9.694l3.926,1.801c2.34,1.073,3.657,2.082,3.955,3.026
			c0.296,0.944-0.589,1.882-2.656,2.813c-1.282,0.577-2.589,0.953-3.92,1.129s-2.608,0.129-3.827-0.139l-7.235,6.468l-3.116-1.43
			l6.834-5.952l-2.355-1.082l-9.999,4.502L422.514,92.526z M437.961,88.428l0.785,0.36c1.309,0.601,2.561,0.928,3.756,0.985
			c1.195,0.057,2.405-0.191,3.631-0.743c1.227-0.552,1.783-1.1,1.67-1.643c-0.115-0.544-0.825-1.115-2.135-1.716l-0.784-0.36
			L437.961,88.428z"/>
		<path fill="#B7B6B6" d="M436.107,98.763l21.536-9.695l8.638,3.963l-2.308,1.039l-5.496-2.521l-6.923,3.115l3.926,1.801
			l-2.307,1.039l-3.926-1.801l-7.691,3.463l5.496,2.521l-2.308,1.038L436.107,98.763z"/>
		<path fill="#B7B6B6" d="M449.96,105.116l16.824-11.855l3.141,1.44l-9.218,6.257l-4.574,2.796l6.219-2.041l13.855-4.13l3.142,1.44
			l-26.248,7.534L449.96,105.116z"/>
	</g>
</g>
</svg>
