<?xml version="1.0" encoding="utf-8"?>
<!-- Generator: Adobe Illustrator 16.0.0, SVG Export Plug-In . SVG Version: 6.00 Build 0)  -->
<!DOCTYPE svg PUBLIC "-//W3C//DTD SVG 1.1//EN" "http://www.w3.org/Graphics/SVG/1.1/DTD/svg11.dtd">
<svg version="1.1" id="Layer_1" xmlns="http://www.w3.org/2000/svg" xmlns:xlink="http://www.w3.org/1999/xlink" x="0px" y="0px"
	 width="317.984px" height="275.646px" viewBox="0 0 317.984 275.646" enable-background="new 0 0 317.984 275.646"
	 xml:space="preserve">
<g>
	<g>
		<path fill="#455968" d="M106.994,177.879v-51.625h20.281v5.531h-12.906v16.594h9.219v5.531h-9.219v18.438h12.906v5.531H106.994z"
			/>
		<path fill="#455968" d="M128.831,177.879l9.161-26.764l-9.219-24.861h7.375l7.375,20.281l7.375-20.281h7.375L149.055,151
			l9.104,26.879h-7.317l-7.317-22.125l-7.317,22.125H128.831z"/>
		<path fill="#455968" d="M168.126,177.879v-45.057h-9.219v-6.568h25.813v6.568h-9.219v45.057H168.126z"/>
		<path fill="#455968" d="M188.378,177.879v-51.625h9.219c5.492,0,9.631,1.066,12.416,3.197c2.785,2.132,4.178,5.675,4.178,10.63
			c0,3.074-0.547,5.646-1.643,7.721c-1.094,2.074-2.699,3.496-4.811,4.264l8.297,25.813h-7.318l-7.432-23.969h-5.531v23.969H188.378
			z M195.753,148.379h1.844c3.072,0,5.377-0.648,6.914-1.943c1.536-1.297,2.305-3.414,2.305-6.354c0-2.938-0.769-5.055-2.305-6.352
			c-1.537-1.297-3.842-1.945-6.914-1.945h-1.844V148.379z"/>
		<path fill="#455968" d="M217.072,177.879l11.063-51.625h7.375l11.063,51.625h-7.375l-2.766-12.906h-9.219l-2.766,12.906H217.072z
			 M228.134,159.442h7.375l-3.688-22.125L228.134,159.442z"/>
		<path fill="#455968" d="M254.781,177.879v-45.057h-9.219v-6.568h25.813v6.568h-9.219v45.057H254.781z"/>
		<path fill="#455968" d="M287.941,178.399c-2.594,0-4.816-0.395-6.67-1.182s-3.328-1.939-4.422-3.457
			c-1.096-1.518-1.893-3.299-2.391-5.344c-0.5-2.045-0.75-4.422-0.75-7.131v-18.725c0-2.709,0.25-5.07,0.75-7.088
			c0.498-2.016,1.295-3.768,2.391-5.257c1.094-1.488,2.568-2.607,4.422-3.355c1.854-0.75,4.076-1.124,6.67-1.124
			c5.031,0,8.66,1.44,10.889,4.321c2.229,2.88,3.342,7.048,3.342,12.503v18.725c0,2.67-0.254,5.027-0.764,7.072
			c-0.508,2.047-1.311,3.832-2.404,5.359c-1.096,1.527-2.57,2.689-4.422,3.486C292.728,178,290.513,178.399,287.941,178.399z
			 M282.568,170.014c0.988,1.557,2.779,2.334,5.373,2.334c2.592,0,4.383-0.777,5.373-2.334c0.988-1.555,1.482-3.85,1.482-6.885
			v-22.412c0-2.996-0.49-5.234-1.469-6.713c-0.98-1.479-2.775-2.219-5.387-2.219c-2.613,0-4.408,0.74-5.389,2.219
			c-0.979,1.479-1.469,3.717-1.469,6.713v22.412C281.083,166.165,281.578,168.459,282.568,170.014z"/>
		<path fill="#455968" d="M120.246,249.198c-2.17,0-4.082-0.307-5.733-0.922c-1.652-0.613-3.006-1.463-4.062-2.549
			c-1.057-1.086-1.916-2.439-2.578-4.063c-0.663-1.623-1.129-3.355-1.397-5.199c-0.269-1.844-0.403-3.928-0.403-6.252v-14.721
			c0-2.324,0.134-4.408,0.403-6.252c0.269-1.844,0.734-3.576,1.397-5.199c0.662-1.623,1.521-2.973,2.578-4.049
			c1.056-1.074,2.41-1.92,4.062-2.535c1.651-0.613,3.563-0.922,5.733-0.922c2.4,0,4.475,0.355,6.223,1.066
			c1.748,0.711,3.145,1.758,4.191,3.141s1.834,2.986,2.362,4.811s0.84,3.957,0.937,6.396c0.019,0.363,0.029,0.932,0.029,1.699
			h-7.375v-1.643c-0.02-1.018-0.058-1.887-0.115-2.607s-0.164-1.465-0.317-2.232c-0.154-0.768-0.379-1.406-0.677-1.916
			c-0.298-0.508-0.673-0.979-1.124-1.412c-0.451-0.432-1.022-0.748-1.714-0.949c-0.691-0.203-1.498-0.303-2.42-0.303
			c-1.191,0-2.214,0.191-3.068,0.576s-1.522,0.879-2.002,1.482c-0.48,0.605-0.85,1.418-1.109,2.436
			c-0.259,1.018-0.427,2.012-0.504,2.98c-0.077,0.971-0.115,2.166-0.115,3.588v18.438c0,1.229,0.053,2.344,0.158,3.342
			s0.312,1.992,0.62,2.98c0.307,0.99,0.706,1.82,1.196,2.492c0.489,0.674,1.142,1.215,1.959,1.629
			c0.816,0.412,1.771,0.619,2.866,0.619s2.036-0.211,2.823-0.635c0.787-0.422,1.407-0.959,1.858-1.613
			c0.451-0.652,0.807-1.488,1.065-2.506c0.26-1.018,0.427-2.006,0.504-2.967c0.077-0.961,0.115-2.074,0.115-3.342v-1.844h7.375
			v1.844c0,2.67-0.235,5.012-0.706,7.029c-0.471,2.016-1.229,3.797-2.276,5.344s-2.468,2.723-4.264,3.529
			S122.781,249.198,120.246,249.198z"/>
		<path fill="#455968" d="M138.885,248.68v-51.625h5.531l12.906,31.92v-31.92h7.375v51.625h-5.243l-13.194-34.34v34.34H138.885z"/>
		<path fill="#455968" d="M172.418,248.68v-51.625h7.375v51.625H172.418z"/>
		<path fill="#455968" d="M201.14,249.198c-4.647,0-8.195-1.363-10.645-4.09c-2.448-2.727-3.817-6.453-4.105-11.178l7.375-1.844
			c0.365,7.375,2.824,11.063,7.375,11.063c3.688,0,5.531-1.844,5.531-5.531c0-1.096-0.148-2.107-0.446-3.039
			s-0.754-1.787-1.368-2.564c-0.615-0.777-1.172-1.402-1.671-1.873s-1.181-1.051-2.046-1.742l-9.219-7.375
			c-1.69-1.326-3.039-3.012-4.047-5.057c-1.009-2.045-1.513-4.373-1.513-6.986c0-3.803,1.181-6.826,3.543-9.074
			c2.362-2.246,5.493-3.371,9.391-3.371c4.188,0,7.514,1.023,9.982,3.068c2.467,2.045,3.99,4.941,4.566,8.686
			c0.057,0.404,0.125,0.961,0.201,1.672l-7.375,1.844c-0.02-0.326-0.066-0.816-0.145-1.469c-0.326-2.344-1.061-4.221-2.203-5.633
			s-2.818-2.117-5.027-2.117c-1.767,0-3.131,0.494-4.09,1.482c-0.961,0.99-1.441,2.367-1.441,4.135c0,2.9,1.229,5.33,3.688,7.289
			l9.219,7.375c4.916,3.975,7.375,8.729,7.375,14.26c0,3.783-1.166,6.742-3.5,8.873C208.212,248.133,205.078,249.198,201.14,249.198
			z"/>
	</g>
</g>
<g>
	<path fill="none" d="M171.685,66.988c0.244,1.369,0.499,2.731,0.763,4.084l24.799-5.333c-0.5-3.396-0.925-6.665-1.288-9.787
		l0.446,5.582L171.685,66.988z"/>
	<linearGradient id="SVGID_1_" gradientUnits="userSpaceOnUse" x1="12.3999" y1="114.2979" x2="160.2134" y2="114.2979">
		<stop  offset="0" style="stop-color:#F7941E"/>
		<stop  offset="1" style="stop-color:#FFDE17"/>
	</linearGradient>
	<path fill="url(#SVGID_1_)" d="M158.195,11.794l-0.127-1.602L12.4,44.735c0,0,1.928,92.667,49,173.667c-31-72-25-153-25-153
		l123.06-28.062C158.285,24.633,158.182,15.356,158.195,11.794z"/>
	<linearGradient id="SVGID_2_" gradientUnits="userSpaceOnUse" x1="39.5024" y1="138.3657" x2="196.4058" y2="138.3657">
		<stop  offset="0" style="stop-color:#009444"/>
		<stop  offset="1" style="stop-color:#39B54A"/>
	</linearGradient>
	<path fill="url(#SVGID_2_)" d="M40.4,69.547c0,0-9,56.8,30,164.855c-22-89-6.333-143.667-6.333-143.667l99.841-22.031
		c-1.845-9.556-3.099-18.498-3.949-26.376L40.4,69.547z"/>
	<linearGradient id="SVGID_3_" gradientUnits="userSpaceOnUse" x1="36.5024" y1="51.7612" x2="193.4058" y2="51.7612">
		<stop  offset="0" style="stop-color:#009444"/>
		<stop  offset="1" style="stop-color:#39B54A"/>
	</linearGradient>
	<path fill="url(#SVGID_3_)" d="M193.406,62.533l-0.446-5.582c-0.976-8.385-1.499-15.69-1.774-21.416l-26.107,5.944
		c0.848,8.386,2.013,17.576,3.607,26.509L193.406,62.533z"/>
	<linearGradient id="SVGID_4_" gradientUnits="userSpaceOnUse" x1="56.4468" y1="77.2231" x2="212.5933" y2="77.2231">
		<stop  offset="0" style="stop-color:#2B3990"/>
		<stop  offset="1" style="stop-color:#1C75BC"/>
	</linearGradient>
	<path fill="url(#SVGID_4_)" d="M212.593,90.217l-2.158-27.605l-11.194,2.407c1.194,9.011,2.769,18.314,4.836,26.815L212.593,90.217
		z"/>
	<linearGradient id="SVGID_5_" gradientUnits="userSpaceOnUse" x1="62.4468" y1="161.5962" x2="218.5933" y2="161.5962">
		<stop  offset="0" style="stop-color:#2B3990"/>
		<stop  offset="1" style="stop-color:#1C75BC"/>
	</linearGradient>
	<path fill="url(#SVGID_5_)" d="M67.066,93.735c0,0-17.631,82.759,16.001,156.722c-20.167-79.055,4.666-136.389,4.666-136.389
		l83.504-15.858c-2.687-8.703-4.825-17.285-6.522-25.476L67.066,93.735z"/>
	<linearGradient id="SVGID_6_" gradientUnits="userSpaceOnUse" x1="59.4468" y1="82.1753" x2="215.5933" y2="82.1753">
		<stop  offset="0" style="stop-color:#2B3990"/>
		<stop  offset="1" style="stop-color:#1C75BC"/>
	</linearGradient>
	<path fill="url(#SVGID_6_)" d="M169.448,72.072c1.847,9.433,4.203,18.377,7.205,25.541l22.688-4.309
		c-2.234-9.342-3.881-18.32-5.094-26.565L169.448,72.072z"/>
</g>
</svg>
