<?xml version="1.0" encoding="utf-8"?>
<!-- Generator: Adobe Illustrator 16.0.0, SVG Export Plug-In . SVG Version: 6.00 Build 0)  -->
<!DOCTYPE svg PUBLIC "-//W3C//DTD SVG 1.1//EN" "http://www.w3.org/Graphics/SVG/1.1/DTD/svg11.dtd">
<svg version="1.1" xmlns="http://www.w3.org/2000/svg" xmlns:xlink="http://www.w3.org/1999/xlink" x="0px" y="0px" width="312px"
	 height="186.667px" viewBox="0 0 312 186.667" enable-background="new 0 0 312 186.667" xml:space="preserve">
<g id="Layer_6">
</g>
<g id="Layer_5">
</g>
<g id="Layer_4">
	<g>
		<g>
			<polygon fill="#F9DE12" points="18.316,179.127 18.486,179.104 18.486,179.104 			"/>
			<linearGradient id="SVGID_1_" gradientUnits="userSpaceOnUse" x1="18.3164" y1="99.2354" x2="85.3564" y2="99.2354">
				<stop  offset="0" style="stop-color:#FFF33B"/>
				<stop  offset="0.0319" style="stop-color:#FFEB3C"/>
				<stop  offset="0.202" style="stop-color:#FFD240"/>
				<stop  offset="0.3756" style="stop-color:#FBBF41"/>
				<stop  offset="0.5523" style="stop-color:#F8B141"/>
				<stop  offset="0.7335" style="stop-color:#F6A841"/>
				<stop  offset="0.9266" style="stop-color:#F6A641"/>
			</linearGradient>
			<path fill="url(#SVGID_1_)" d="M85.356,24.555c-9.532-7.576-20.345-7.7-32.805,5.024C40.706,41.676,35.863,59.536,30.695,78.74
				c-12.457,46.29-12.378,100.387-12.378,100.387c0,0,6.889-105.328,43.734-142.819C70.888,27.316,78.583,23.904,85.356,24.555z"/>
			<linearGradient id="SVGID_2_" gradientUnits="userSpaceOnUse" x1="18.3164" y1="101.8027" x2="101.9717" y2="101.8027">
				<stop  offset="0" style="stop-color:#83C441"/>
				<stop  offset="0.1535" style="stop-color:#66AA42"/>
				<stop  offset="0.3554" style="stop-color:#479642"/>
				<stop  offset="0.562" style="stop-color:#2E8941"/>
				<stop  offset="0.7741" style="stop-color:#198240"/>
				<stop  offset="1" style="stop-color:#0E7F40"/>
			</linearGradient>
			<path fill="url(#SVGID_2_)" d="M70.868,47.236c12.492-12.285,22.656-14.998,31.104-11.599
				c-4.861-6.39-10.342-10.479-16.615-11.082c-6.773-0.651-14.468,2.761-23.306,11.753C25.206,73.799,18.316,179.127,18.316,179.127
				l0.17-0.024C20.234,168.669,35.666,81.854,70.868,47.236z"/>
		</g>
		<g>
			<path fill="#1E448B" d="M304.637,137.524c0,0-1.537-0.923-4.668-2.191c-3.128-1.256-7.838-2.839-14.004-4.147
				c-3.082-0.642-6.518-1.267-10.289-1.709c-1.88-0.266-3.853-0.409-5.892-0.614c-2.046-0.12-4.161-0.318-6.355-0.365
				c-4.384-0.216-9.057-0.13-13.975,0.016c-4.914,0.256-10.082,0.586-15.441,1.256c-10.729,1.237-22.26,3.367-34.247,6.443
				c-11.991,3.059-24.463,6.964-37.116,11.679l-2.379,0.88l-1.193,0.441c-0.225,0.08-0.34,0.134-0.656,0.234
				c-0.194,0.064-0.393,0.133-0.711,0.19c-1.105,0.234-2.214,0.032-3.156-0.411c-0.946-0.437-1.702-1.076-2.361-1.747
				c-1.313-1.358-2.263-2.896-3.137-4.452c-0.858-1.564-1.604-3.171-2.296-4.797c-2.724-6.52-4.77-13.298-6.822-20.115
				c-4.048-13.645-7.805-27.58-12.602-41.127c-2.412-6.76-5.063-13.436-8.287-19.752c-1.614-3.153-3.372-6.216-5.361-9.076
				c-1.987-2.855-4.214-5.516-6.763-7.71c-2.536-2.196-5.439-3.876-8.545-4.62c-3.099-0.785-6.365-0.546-9.459,0.372
				c-3.103,0.929-6.034,2.511-8.757,4.377c-2.725,1.871-5.283,4.006-7.685,6.282l-0.896,0.857l-0.869,0.873
				c-0.6,0.6-1.183,1.198-1.719,1.792c-1.102,1.174-2.187,2.424-3.218,3.68c-2.076,2.514-4.005,5.12-5.814,7.772
				c-3.597,5.319-6.786,10.773-9.617,16.233c-5.658,10.932-10.025,21.792-13.659,31.941c-3.649,10.152-6.593,19.613-8.972,28.065
				c-2.368,8.456-4.243,15.884-5.713,22.021c-1.462,6.139-2.475,10.995-3.172,14.305c-0.687,3.312-1.009,5.085-1.009,5.085
				l-0.345-0.054c0,0,0.237-1.793,0.765-5.14c0.52-3.348,1.383-8.241,2.6-14.449c1.217-6.208,2.829-13.723,5.003-22.269
				c2.171-8.545,4.818-18.148,8.283-28.456c3.501-10.289,7.733-21.323,13.31-32.53c2.812-5.586,5.912-11.249,9.62-16.722
				c1.85-2.738,3.829-5.439,5.975-8.061c1.073-1.316,2.172-2.597,3.36-3.875c0.587-0.653,1.175-1.261,1.764-1.855l0.912-0.924
				L70,44.254c2.501-2.384,5.17-4.677,8.138-6.662c2.953-1.99,6.194-3.731,9.784-4.782c3.569-1.041,7.546-1.319,11.292-0.34
				c3.756,0.933,7.113,2.985,9.906,5.458c2.812,2.483,5.157,5.376,7.219,8.412c2.062,3.042,3.844,6.241,5.467,9.507
				c3.238,6.54,5.844,13.348,8.201,20.209c4.7,13.735,8.344,27.741,12.249,41.381c1.977,6.805,3.956,13.57,6.547,19.937
				c0.657,1.584,1.362,3.137,2.155,4.615c0.8,1.465,1.681,2.891,2.756,4.016c1.056,1.138,2.375,1.857,3.563,1.606
				c0.074-0.017,0.116-0.008,0.218-0.04l0.305-0.095c0.093-0.021,0.372-0.13,0.549-0.191l1.203-0.433l2.399-0.863
				c12.76-4.612,25.323-8.458,37.417-11.375c12.088-2.946,23.707-4.947,34.509-6.061c5.396-0.608,10.597-0.878,15.539-1.075
				c4.947-0.088,9.645-0.116,14.05,0.154c2.204,0.074,4.33,0.299,6.385,0.444c2.048,0.231,4.028,0.399,5.916,0.689
				c3.785,0.49,7.231,1.16,10.323,1.843c6.183,1.39,10.899,3.039,14.033,4.341c3.131,1.312,4.69,2.273,4.691,2.272L304.637,137.524z
				"/>
		</g>
	</g>
	<g>
		<path fill="#F9DE12" d="M385.666,504.667c0,0-51-23-150.025,9.566c-21.842,7.184-44.974-174.566-98.422-119.987
			c-11.846,12.097-16.688,29.957-21.857,49.161c-12.457,46.29-12.378,100.387-12.378,100.387L385.666,504.667z"/>
		<path fill="#549D44" d="M382.982,504.794c0,0-45.313-22.906-147.598,14.225c-21.612,7.844-30.052-177.685-88.667-118.043
			c-36.845,37.49-43.734,142.818-43.734,142.818L382.982,504.794z"/>
		<path fill="#FFFFFF" d="M392.395,503.759c1.004-3.651-47.035-29.521-148.805,8.99c-21.507,8.138-26.738-162.161-88.056-101.859
			c-37.481,36.859-52.551,132.904-52.551,132.904S373.061,574.196,392.395,503.759z"/>
		<g>
			<path fill="#1E448B" d="M389.969,501.857c0,0-1.537-0.923-4.668-2.191c-3.128-1.256-7.838-2.839-14.004-4.146
				c-3.082-0.643-6.518-1.267-10.289-1.709c-1.88-0.266-3.853-0.409-5.892-0.614c-2.046-0.12-4.161-0.318-6.355-0.365
				c-4.384-0.216-9.057-0.13-13.974,0.017c-4.915,0.256-10.083,0.586-15.442,1.256c-10.729,1.237-22.259,3.367-34.247,6.443
				c-11.991,3.06-24.463,6.964-37.116,11.68l-2.379,0.88l-1.193,0.441c-0.226,0.079-0.34,0.135-0.656,0.234
				c-0.193,0.063-0.394,0.133-0.711,0.189c-1.104,0.233-2.214,0.031-3.155-0.411c-0.946-0.438-1.702-1.076-2.361-1.747
				c-1.313-1.358-2.263-2.896-3.137-4.452c-0.857-1.563-1.604-3.171-2.295-4.797c-2.725-6.52-4.771-13.298-6.822-20.115
				c-4.048-13.645-7.805-27.579-12.603-41.127c-2.411-6.76-5.063-13.436-8.286-19.752c-1.613-3.153-3.372-6.216-5.361-9.076
				c-1.988-2.854-4.214-5.516-6.763-7.71c-2.536-2.195-5.439-3.876-8.545-4.619c-3.099-0.785-6.365-0.547-9.459,0.371
				c-3.103,0.929-6.034,2.512-8.757,4.378c-2.725,1.871-5.283,4.006-7.684,6.282l-0.897,0.857l-0.869,0.873
				c-0.6,0.6-1.183,1.197-1.719,1.792c-1.101,1.174-2.187,2.424-3.218,3.68c-2.076,2.514-4.005,5.12-5.814,7.771
				c-3.597,5.32-6.786,10.773-9.617,16.233c-5.658,10.932-10.025,21.792-13.659,31.941c-3.649,10.152-6.593,19.613-8.972,28.064
				c-2.368,8.456-4.243,15.885-5.713,22.021c-1.462,6.139-2.475,10.995-3.172,14.305c-0.687,3.312-1.009,5.086-1.009,5.086
				l-0.345-0.055c0,0,0.237-1.792,0.765-5.139c0.519-3.349,1.383-8.242,2.6-14.449c1.217-6.208,2.829-13.724,5.003-22.27
				c2.171-8.545,4.818-18.148,8.283-28.455c3.501-10.289,7.733-21.323,13.31-32.53c2.813-5.587,5.912-11.249,9.62-16.722
				c1.85-2.737,3.83-5.439,5.975-8.062c1.073-1.316,2.172-2.597,3.36-3.874c0.587-0.653,1.175-1.261,1.764-1.855l0.912-0.925
				l0.931-0.899c2.501-2.384,5.17-4.677,8.138-6.661c2.953-1.99,6.194-3.731,9.784-4.782c3.569-1.042,7.546-1.319,11.292-0.34
				c3.756,0.933,7.113,2.985,9.906,5.458c2.812,2.482,5.157,5.376,7.219,8.412c2.063,3.041,3.845,6.241,5.468,9.507
				c3.238,6.54,5.844,13.348,8.201,20.21c4.7,13.734,8.344,27.74,12.249,41.381c1.977,6.805,3.956,13.569,6.547,19.937
				c0.657,1.584,1.362,3.137,2.154,4.615c0.8,1.465,1.682,2.891,2.756,4.017c1.057,1.138,2.375,1.857,3.563,1.606
				c0.074-0.017,0.117-0.008,0.219-0.039l0.305-0.095c0.094-0.021,0.372-0.131,0.549-0.191l1.203-0.433l2.399-0.863
				c12.76-4.611,25.322-8.457,37.418-11.375c12.087-2.946,23.706-4.948,34.508-6.062c5.396-0.608,10.597-0.878,15.539-1.075
				c4.947-0.088,9.645-0.116,14.05,0.153c2.204,0.074,4.33,0.3,6.385,0.445c2.048,0.23,4.028,0.399,5.916,0.688
				c3.786,0.491,7.231,1.16,10.323,1.844c6.183,1.39,10.899,3.039,14.033,4.341c3.131,1.313,4.69,2.273,4.691,2.273L389.969,501.857
				z"/>
		</g>
	</g>
	<text transform="matrix(1 0 0 1 226.9092 469.668)"><tspan x="0" y="0" fill="#1E448B" font-family="'OpenSans-Light'" font-size="76.7216" letter-spacing="-8">UD</tspan><tspan x="84.469" y="0" fill="#185D96" font-family="'OpenSans-Light'" font-size="76.7216" letter-spacing="-8">RJ</tspan></text>
</g>
<g id="Layer_1">
</g>
<g id="Layer_3">
</g>
<g id="Layer_2">
	<g>
		<path fill="#BCBEC0" d="M156.558,95.565V41.67h6.312v55.349c0,4.097,0.927,7.149,2.782,9.155c1.854,2.007,4.982,3.011,9.384,3.011
			c4.152,0,7.114-1.01,8.886-3.031c1.771-2.021,2.657-5.066,2.657-9.135V41.67h6.27v53.895c0,12.457-5.938,18.685-17.813,18.685
			c-2.851,0-5.363-0.332-7.536-0.997c-2.173-0.664-3.944-1.557-5.314-2.678c-1.371-1.121-2.485-2.491-3.343-4.11
			c-0.858-1.62-1.453-3.308-1.785-5.066C156.724,99.642,156.558,97.698,156.558,95.565z"/>
		<path fill="#BCBEC0" d="M195.626,113.129V41.67h16.068c2.713,0,5.121,0.367,7.225,1.1c2.104,0.734,3.842,1.73,5.211,2.99
			c1.371,1.26,2.492,2.803,3.363,4.629c0.873,1.827,1.496,3.765,1.869,5.813c0.373,2.049,0.561,4.305,0.561,6.768v29.065
			c0,14.063-6.076,21.093-18.229,21.093H195.626z M201.938,108.064h9.757c7.945,0,11.918-4.872,11.918-14.616V61.559
			c0-9.882-3.973-14.823-11.918-14.823h-9.757V108.064z"/>
		<path fill="#BCBEC0" d="M231.705,113.129V41.67h19.058c2.408,0,4.526,0.332,6.354,0.997c1.826,0.664,3.301,1.543,4.422,2.636
			c1.121,1.094,2.027,2.45,2.72,4.069c0.691,1.619,1.169,3.294,1.433,5.024c0.263,1.73,0.394,3.647,0.394,5.75
			c0,9.107-3.321,14.879-9.965,17.314l11.045,35.667h-6.727l-10.422-34.878h-12v34.878H231.705z M238.016,73.186h12.706
			c1.799,0,3.321-0.359,4.567-1.08c1.245-0.72,2.18-1.744,2.803-3.073s1.059-2.712,1.308-4.152c0.249-1.439,0.374-3.086,0.374-4.941
			c0-1.522-0.077-2.892-0.229-4.111c-0.152-1.218-0.43-2.408-0.83-3.571c-0.402-1.163-0.935-2.138-1.599-2.927
			c-0.665-0.789-1.537-1.418-2.616-1.889c-1.079-0.47-2.34-0.706-3.778-0.706h-12.706V73.186z"/>
		<path fill="#BCBEC0" d="M261.431,113.129v-4.775c1.412,0,2.505-0.007,3.28-0.021c0.774-0.014,1.599-0.089,2.471-0.228
			c0.872-0.138,1.509-0.297,1.91-0.478c0.4-0.18,0.83-0.505,1.287-0.976c0.457-0.47,0.761-0.961,0.913-1.474
			c0.152-0.512,0.305-1.246,0.457-2.2c0.151-0.955,0.242-1.938,0.27-2.948c0.027-1.01,0.042-2.318,0.042-3.924V41.67h6.312v54.435
			c0,2.159-0.049,3.944-0.146,5.356c-0.098,1.412-0.306,2.823-0.623,4.235c-0.318,1.412-0.782,2.526-1.391,3.343
			c-0.609,0.817-1.419,1.564-2.43,2.242c-1.011,0.679-2.263,1.156-3.758,1.433c-1.494,0.277-3.267,0.415-5.314,0.415H261.431z"/>
	</g>
	<g>
		<path fill="#FFFFFF" d="M155,93.444V39.549h6.312v55.349c0,4.097,0.927,7.149,2.781,9.155c1.855,2.007,4.982,3.011,9.385,3.011
			c4.152,0,7.113-1.01,8.885-3.031c1.771-2.021,2.658-5.066,2.658-9.135V39.549h6.27v53.895c0,12.457-5.938,18.685-17.813,18.685
			c-2.852,0-5.363-0.332-7.537-0.997c-2.173-0.664-3.943-1.557-5.314-2.678c-1.37-1.121-2.484-2.491-3.342-4.11
			c-0.859-1.62-1.453-3.308-1.785-5.066C155.166,97.521,155,95.577,155,93.444z"/>
		<path fill="#FFFFFF" d="M194.067,111.008V39.549h16.068c2.713,0,5.121,0.367,7.225,1.1c2.104,0.734,3.842,1.73,5.211,2.99
			c1.371,1.26,2.492,2.803,3.363,4.629c0.873,1.827,1.496,3.765,1.869,5.813c0.373,2.049,0.561,4.305,0.561,6.768v29.065
			c0,14.063-6.076,21.093-18.229,21.093H194.067z M200.38,105.943h9.756c7.945,0,11.918-4.872,11.918-14.616V59.438
			c0-9.882-3.973-14.823-11.918-14.823h-9.756V105.943z"/>
		<path fill="#FFFFFF" d="M230.147,111.008V39.549h19.057c2.408,0,4.527,0.332,6.354,0.997c1.826,0.664,3.301,1.543,4.422,2.636
			c1.121,1.094,2.027,2.45,2.721,4.069c0.691,1.619,1.168,3.294,1.432,5.024s0.395,3.647,0.395,5.75
			c0,9.107-3.322,14.879-9.965,17.314l11.045,35.667h-6.727L248.458,76.13h-12v34.878H230.147z M236.458,71.064h12.705
			c1.799,0,3.322-0.359,4.568-1.08c1.244-0.72,2.18-1.744,2.803-3.073s1.059-2.712,1.307-4.152c0.25-1.439,0.375-3.086,0.375-4.941
			c0-1.522-0.078-2.892-0.229-4.111c-0.152-1.218-0.43-2.408-0.83-3.571c-0.402-1.163-0.936-2.138-1.6-2.927
			s-1.537-1.418-2.615-1.889c-1.08-0.47-2.34-0.706-3.779-0.706h-12.705V71.064z"/>
		<path fill="#FFFFFF" d="M259.872,111.008v-4.775c1.412,0,2.506-0.007,3.281-0.021c0.773-0.014,1.598-0.089,2.471-0.228
			c0.871-0.138,1.508-0.297,1.91-0.478c0.4-0.18,0.83-0.505,1.287-0.976c0.457-0.47,0.76-0.961,0.912-1.474
			c0.152-0.512,0.305-1.246,0.457-2.2c0.152-0.955,0.242-1.938,0.27-2.948c0.027-1.01,0.043-2.318,0.043-3.924V39.549h6.311v54.435
			c0,2.159-0.049,3.944-0.145,5.356c-0.098,1.412-0.307,2.823-0.623,4.235c-0.318,1.412-0.783,2.526-1.391,3.343
			c-0.609,0.817-1.42,1.564-2.43,2.242c-1.012,0.679-2.264,1.156-3.758,1.433c-1.494,0.277-3.268,0.415-5.314,0.415H259.872z"/>
	</g>
</g>
</svg>
